<?xml version="1.0" encoding="UTF-8" standalone="no"?>
<!-- Created with Inkscape (http://www.inkscape.org/) -->

<svg
   width="210mm"
   height="297mm"
   viewBox="0 0 210 297"
   version="1.1"
   id="svg5"
   xml:space="preserve"
   inkscape:version="1.2.2 (732a01da63, 2022-12-09)"
   sodipodi:docname="logo.svg"
   xmlns:inkscape="http://www.inkscape.org/namespaces/inkscape"
   xmlns:sodipodi="http://sodipodi.sourceforge.net/DTD/sodipodi-0.dtd"
   xmlns="http://www.w3.org/2000/svg"
   xmlns:svg="http://www.w3.org/2000/svg"><sodipodi:namedview
     id="namedview7"
     pagecolor="#505050"
     bordercolor="#eeeeee"
     borderopacity="1"
     inkscape:showpageshadow="0"
     inkscape:pageopacity="0"
     inkscape:pagecheckerboard="0"
     inkscape:deskcolor="#505050"
     inkscape:document-units="mm"
     showgrid="false"
     inkscape:zoom="0.73851712"
     inkscape:cx="186.86094"
     inkscape:cy="293.83205"
     inkscape:window-width="1920"
     inkscape:window-height="1009"
     inkscape:window-x="-8"
     inkscape:window-y="-8"
     inkscape:window-maximized="1"
     inkscape:current-layer="layer1" /><defs
     id="defs2" /><g
     inkscape:label="Capa 1"
     inkscape:groupmode="layer"
     id="layer1"><path
       style="fill:#000000;stroke-width:0.264583"
       d="m 101.96259,220.98064 c -3.944371,-4.2356 -4.447111,-6.95795 -1.88663,-10.21621 0.88248,-1.12298 0.79054,-1.52605 -0.348111,-1.52605 -1.42904,0 -2.93569,1.16951 -4.85724,3.77032 -1.29514,1.75296 -2.22329,1.28642 -3.35236,-1.68506 -1.482283,-3.90104 -0.25194,-8.08963 3.5583,-12.11397 1.21357,-1.28176 1.21357,-1.28176 1.25499,-7.07366 0.0719,-10.05018 2.66064,-18.91496 6.457701,-22.1133 3.61175,-3.04226 8.32302,11.89191 7.72378,24.48346 -0.14882,3.12716 -0.14882,3.12716 1.59766,5.41614 3.62781,4.75468 4.3568,8.44589 2.44709,12.39082 -1.08739,2.24624 -1.94722,2.17337 -3.82685,-0.32432 -1.65084,-2.19366 -2.34998,-2.75043 -3.45375,-2.75043 -1.24688,0 -1.3155,0.35546 -0.34181,1.77066 2.27257,3.30308 1.80999,5.55595 -2.01417,9.80934 -1.51367,1.68357 -1.54051,1.68504 -2.9586,0.16226 z m 4.0496,-5.34132 c 0.41318,-1.06415 0.41328,-1.20098 10e-4,-2.06462 -0.4089,-0.85747 -0.95372,-1.01731 -0.97416,-0.2858 -0.0474,1.69839 -1.91845,1.79242 -3.05422,0.1535 -1.23885,-1.78766 -2.013071,0.67818 -0.87793,2.79612 1.82106,3.39769 3.42927,3.20123 4.90487,-0.5992 z m -2.28683,-4.69854 c 0,-0.37337 0.12448,-0.91145 0.27663,-1.19574 0.24859,-0.46449 0.19494,-0.51067 -0.52913,-0.4555 -0.5848,0.0446 -0.77295,0.17294 -0.68608,0.46814 0.0658,0.22371 0.19779,0.73417 0.29324,1.13435 0.21879,0.91733 0.64534,0.94955 0.64534,0.0487 z m -8.689741,-1.22721 c 0.63201,-0.7573 0.99352,-1.28187 0.80335,-1.16572 -1.22322,0.74711 -2.16768,-0.80092 -1.12215,-1.83926 0.93396,-0.92753 1.33562,-1.20427 1.33562,-0.92022 0,0.15126 0.1786,0.27501 0.39688,0.27501 0.42922,0 0.54207,-3.39668 0.15823,-4.7625 -0.47237,-1.68083 -3.60652,4.25545 -3.56211,6.74688 0.0562,3.1517 0.46472,3.49365 1.99018,1.66581 z m 18.217221,-0.35484 c 0.48855,-2.35334 0.10735,-3.8443 -1.70961,-6.68664 -1.31806,-2.0619 -1.46704,-2.04669 -1.47148,0.15015 -0.002,0.98226 -0.0714,2.03844 -0.15421,2.34706 -0.11823,0.44051 -0.006,0.5974 0.52154,0.72983 0.77251,0.19389 2.01753,1.26353 2.01753,1.73334 0,0.76727 -0.55551,1.38426 -0.95089,1.05613 -0.75219,-0.62427 -0.65017,-0.0269 0.14388,0.84249 0.44386,0.48596 0.80701,0.97609 0.80701,1.08918 0,0.80363 0.54763,-0.064 0.79623,-1.26154 z m -5.70845,-2.76618 c 0.0597,-0.21828 0.18272,-1.5875 0.27328,-3.04271 0.0906,-1.45521 0.23264,-3.5388 0.31574,-4.6302 0.22709,-2.98261 0.16394,-13.17513 -0.091,-14.68438 -0.33557,-1.98673 -8.764261,-2.10807 -9.189181,-0.13229 -0.38478,1.78914 -0.32794,14.91591 0.0832,19.20451 0.32133,3.35215 7.807601,6.20914 8.607981,3.28507 z m -5.63921,-14.74003 c -1.71573,-0.84523 -2.021481,-3.38519 -0.56604,-4.70235 0.92719,-0.83909 2.92329,-0.84777 3.9106,-0.017 2.68686,2.26084 -0.16538,6.28552 -3.34456,4.71936 z m 2.0745,-2.17413 c 0.56164,-1.04943 -0.54544,-1.86965 -1.29862,-0.96212 -0.23407,0.28203 -0.24002,0.5207 -0.0231,0.92604 0.36695,0.68564 0.96534,0.70197 1.32171,0.0361 z m 3.13489,-9.21344 c -0.0797,-0.41365 -0.46927,-0.46302 -3.65379,-0.46302 -3.18453,0 -3.574141,0.0494 -3.653801,0.46302 -0.0815,0.42335 0.231481,0.46302 3.653801,0.46302 3.42231,0 3.73533,-0.0397 3.65379,-0.46302 z m -0.85851,-2.77324 c 0.27623,-0.27622 -1.70509,-4.65501 -2.34757,-5.18821 -0.3345,-0.27762 -0.53931,-0.0905 -1.31749,1.2036 -0.93751,1.55909 -2.04064,3.65905 -2.04064,3.88464 0,0.34718 5.3645,0.44118 5.7057,0.1 z m -18.596824,39.95996 c -0.3415,-0.42332 0.0317,-1.53582 0.51332,-1.53007 0.64973,0.008 1.04642,0.45684 0.95772,1.08421 -0.10135,0.71679 -1.02631,0.99714 -1.47104,0.44586 z m 30.412494,-1.68141 c -1.15757,-0.81079 -0.62954,-2.49854 0.7817,-2.49854 1.53521,0 1.88921,1.8929 0.49367,2.63977 -0.63648,0.34063 -0.57819,0.34709 -1.27537,-0.14123 z m 7.1843,0.12449 c -2.58485,-0.74943 -1.6865,-1.96157 1.45375,-1.96157 3.48148,0 5.3495,-1.76776 3.45232,-3.26703 -0.75124,-0.59367 -0.81591,-0.60162 -1.4601,-0.17954 -3.49066,2.28717 -8.14105,-2.02169 -6.68618,-6.19514 0.28971,-0.83106 0.2539,-0.90268 -1.17738,-2.35459 -3.43009,-3.47954 -2.95747,-9.30266 0.75504,-9.30266 0.25023,0 0.23811,-0.25579 -0.052,-1.09791 -0.69461,-2.01611 0.44388,-3.96907 2.51809,-4.31951 1.01733,-0.17187 1.02791,-0.18612 1.17152,-1.57758 0.59356,-5.75109 8.61854,-8.33767 10.66585,-3.43778 0.59547,1.42516 0.80674,4.61195 0.30576,4.61195 -1.15419,0 -4.01015,1.1793 -5.40318,2.23111 -10.15134,7.6648 -3.06011,22.40114 9.41809,19.57182 10.96587,-2.48641 10.96961,-18.24155 0.005,-21.4607 -2.02867,-0.59562 -2.59792,-1.41825 -2.61696,-3.78182 -0.0341,-4.23507 5.67517,-5.93052 8.11214,-2.40901 0.61736,0.89211 0.88878,1.0686 1.66375,1.08187 4.26769,0.073 6.6291,4.98399 4.42418,9.20082 -0.7251,1.38674 -0.7251,1.38674 0.0151,1.38674 4.68321,0 5.81259,6.1377 1.63775,8.90048 -1.68063,1.11218 -1.98882,1.78251 -1.31832,2.86739 2.22346,3.59764 -1.71953,8.6627 -5.26607,6.76465 -0.51799,-0.27722 -0.71505,-0.19246 -1.73214,0.74506 -2.72706,2.51372 -8.37947,2.8339 -10.27433,0.58199 -0.64725,-0.76922 -0.64725,-0.76922 -1.52997,0.40888 -1.91646,2.55778 -5.28208,3.80381 -8.08181,2.99208 z m -1.42234,-17.11614 c 0,-0.52193 -0.10836,-0.81698 -0.26458,-0.72043 -0.14552,0.0899 -0.26458,0.0473 -0.26458,-0.0946 0,-0.14198 0.11406,-0.29784 0.25346,-0.34635 1.0927,-0.3802 0.34408,-2.46944 -0.88486,-2.46944 -2.47507,0 -3.11455,2.59354 -0.99132,4.02047 1.31411,0.88316 2.15188,0.73147 2.15188,-0.38962 z m 28.22705,0.71715 c 2.64352,-1.00161 2.67934,-4.48029 0.0461,-4.48029 -1.38844,0 -1.59258,0.20904 -1.11187,1.13862 0.29256,0.56574 0.33247,0.85338 0.12786,0.92159 -0.19681,0.0656 -0.21489,0.2534 -0.0534,0.55508 0.14778,0.27613 0.14854,0.60682 0.002,0.83855 -0.67081,1.06028 -0.25058,1.49625 0.98937,1.02645 z m -70.465924,16.15697 c -1.41696,-0.56565 -1.81237,-2.27465 -0.76794,-3.31908 1.88632,-1.88632 4.77952,0.65173 2.98859,2.62172 -0.70614,0.77674 -1.44252,1.00799 -2.22065,0.69736 z m -15.33491,-3.67464 c -5.40315,-1.54685 -8.92241,-6.39209 -8.46636,-11.65631 0.22488,-2.59584 0.22416,-2.59264 0.90237,-3.96695 0.7582,-1.53641 0.79675,-1.43079 -0.86416,-2.36815 -1.78521,-1.00751 -2.16802,-1.61054 -1.52585,-2.40358 0.5389,-0.66552 1.06771,-0.5195 2.83716,0.78341 2.25915,1.66351 4.16093,-0.48141 2.54138,-2.86629 -1.17977,-1.7373 -1.34683,-2.52871 -0.61632,-2.91967 0.69978,-0.37451 1.22856,0.0429 2.31051,1.82401 1.0469,1.72339 1.05107,1.72548 2.54676,1.27736 1.18824,-0.35601 1.19602,-0.40014 0.47953,-2.71987 -0.59842,-1.93746 -0.51275,-2.67557 0.34202,-2.94687 0.83822,-0.26603 1.3736,0.57736 1.76821,2.7855 0.56047,3.13617 1.769,3.27124 2.53644,0.28347 0.67437,-2.62541 1.08153,-3.22876 2.01428,-2.98484 0.54474,0.14245 0.92835,1.17183 0.62163,1.66811 -1.5451,2.50002 0.13369,6.34927 1.71507,3.93244 1.85185,-2.83019 2.0161,-3.01877 2.62936,-3.01877 1.40785,0 1.37871,0.82056 -0.10203,2.87316 -1.12061,1.5534 -1.12458,1.65551 -0.10775,2.7738 0.92296,1.01505 1.50588,0.92337 3.32608,-0.52315 1.07806,-0.85673 1.46758,-0.93009 1.93677,-0.36474 0.62754,0.75614 0.0913,1.60235 -1.57979,2.49304 -1.75876,0.93741 -1.718,0.8835 -1.28145,1.69497 0.75193,1.3977 1.33812,5.85928 1.006,7.65682 -1.16149,6.28629 -8.49713,10.54615 -14.96986,8.6931 z m 4.22918,-7.42581 c 0.92173,-0.35044 1.58445,-1.4367 1.37811,-2.25884 -0.17394,-0.69304 -0.95017,-0.93471 -0.95017,-0.29582 0,1.50518 -2.21736,1.85025 -2.42703,0.37769 -0.12677,-0.89032 -0.95219,-0.9456 -1.16986,-0.0784 -0.28144,1.12135 0.78195,2.25745 2.32289,2.48172 0.0997,0.0145 0.4804,-0.0874 0.84606,-0.2264 z m -6.71581,-2.54243 c 0,-0.0822 -0.35719,-0.44993 -0.79375,-0.81727 -1.66346,-1.39971 -0.23278,-3.82397 1.52863,-2.59023 0.32342,0.22653 0.58804,0.58372 0.58804,0.79375 0,0.66264 0.77578,0.41328 0.95669,-0.30751 0.26986,-1.07521 -0.48549,-2.37639 -1.59138,-2.74137 -2.61981,-0.86461 -4.75902,2.80488 -2.91367,4.99795 0.606,0.72019 2.22544,1.20387 2.22544,0.66468 z m 13.24382,-0.12306 c 0.64528,-0.34534 1.30826,-1.6128 1.30826,-2.50106 0,-2.89781 -3.39107,-4.44137 -4.77413,-2.17309 -1.01559,1.66561 -0.39704,3.51642 0.65309,1.95416 0.66267,-0.98585 1.57389,-1.20848 2.29078,-0.55971 0.93656,0.84758 0.52542,2.56366 -0.68712,2.86799 -0.37359,0.0938 -0.60783,0.28606 -0.52053,0.42731 0.20758,0.33587 1.08776,0.32793 1.72965,-0.0156 z m 82.929164,4.13937 c -0.62329,-0.45576 -0.40003,-1.33295 0.367,-1.44195 0.7921,-0.11255 1.19147,0.28204 0.97518,0.96352 -0.21992,0.69292 -0.77718,0.89157 -1.34218,0.47843 z m -23.12858,-3.01647 c -2.64234,-0.43531 -3.14757,-4.09309 -0.72492,-5.24837 1.92536,-0.91814 3.95267,0.25711 3.95267,2.29141 0,1.81347 -1.54993,3.23337 -3.22775,2.95696 z m 1.03893,-2.30568 c 0.26278,-0.31663 0.26278,-0.47712 0,-0.79375 -0.67926,-0.81846 -1.50389,-0.22632 -1.01327,0.7276 0.29185,0.56746 0.58153,0.58637 1.01327,0.0661 z m -92.459664,0.41037 c -0.4573,-0.50531 -0.20249,-1.60099 0.37234,-1.60099 1.07699,0 1.49711,1.34065 0.57479,1.83426 -0.37984,0.20328 -0.60144,0.14871 -0.94713,-0.23327 z m 85.058064,-2.91718 c -1.17878,-1.17877 -0.87471,-3.13218 0.58144,-3.73534 1.65322,-0.68478 3.20592,1.04506 2.48555,2.76913 -0.62298,1.49101 -2.08242,1.95078 -3.06699,0.96621 z m 11.50264,0.2232 c -1.98882,-1.11142 -1.36398,-4.19868 0.84978,-4.19868 0.77169,0 2.19293,1.33326 2.19293,2.05718 0,1.54487 -1.8192,2.82524 -3.04271,2.1415 z m 21.21076,-0.14174 c -0.49763,-0.49763 -0.17155,-14.76371 0.35278,-15.43402 1.23457,-1.57832 0.5439,-2.64748 -1.70656,-2.64179 -2.36208,0.006 -2.39413,0.0491 -2.39659,3.22772 -0.003,3.28748 -0.52689,4.57344 -1.8648,4.57344 -0.95044,0 -1.15359,-0.7482 -0.5304,-1.95333 0.29698,-0.57429 0.41293,-1.5757 0.41293,-3.56626 0,-3.72076 0.40329,-4.1377 4.00219,-4.1377 4.26806,0 5.82372,2.01819 4.05732,5.26364 -1.35461,2.48887 -0.8499,6.51406 0.80403,6.41239 1.86894,-0.11487 1.98438,-0.27925 1.98438,-2.82568 0,-2.50835 0.54195,-3.2941 2.27201,-3.2941 0.87774,0 0.87774,0 0.95651,-1.62614 0.0582,-1.20216 0.19949,-1.70194 0.54179,-1.91687 0.87643,-0.55033 1.38019,0.10753 1.46784,1.91687 0.0788,1.62614 0.0788,1.62614 1.07391,1.62614 1.85485,0 2.01114,0.30782 2.10831,4.15247 0.08,3.16646 0.0479,3.43696 -0.46302,3.89935 -1.11057,1.00506 -1.60735,0.0166 -1.60735,-3.19804 0,-2.73711 0,-2.73711 -2.11667,-2.73711 -2.11666,0 -2.11666,0 -2.1316,1.52135 -0.0307,3.12831 -0.97326,4.27224 -3.73797,4.53658 -1.67105,0.15977 -1.67105,0.15977 -1.74672,3.06046 -0.0499,1.91224 -0.18513,2.97024 -0.39688,3.1048 -0.39767,0.25271 -1.09973,0.27155 -1.33544,0.0358 z m 6.49111,-2.25777 c -1.11153,-1.11154 5.3e-4,-5.12422 1.15462,-4.16639 0.62848,0.5216 0.52399,3.85902 -0.13181,4.20999 -0.6378,0.34135 -0.63786,0.34134 -1.02281,-0.0436 z M 36.722256,195.10452 c -7.90559,-2.28221 -11.78998,-10.71937 -8.28592,-17.99759 5.72212,-11.88532 23.95986,-7.662 23.95986,5.5484 0,8.15858 -8.14023,14.62404 -15.67394,12.44919 z m 7.01953,-2.61915 c 1.95985,-0.91345 3.47833,-2.1009 4.54393,-3.55333 1.1807,-1.60932 1.19975,-1.55287 -0.58588,-1.73647 -0.98814,-0.10161 -2.14036,-0.47952 -3.28753,-1.07827 -1.76618,-0.92183 -1.76618,-0.92183 -2.11667,0.17765 -1.1258,3.53162 -6.30361,2.82856 -6.30361,-0.85593 0,-1.39848 0.76138,-1.86522 3.04271,-1.86522 2.28381,0 2.22971,0.0806 1.18632,-1.76816 -1.52848,-2.70832 -1.97871,-5.97264 -1.15656,-8.3855 0.82418,-2.41884 -4.10696,-1.01657 -6.89075,1.95952 -7.69176,8.22311 1.49138,21.80227 11.56804,17.10571 z m -12.31382,-7.3417 c -0.56244,-0.33192 -0.60254,-1.1247 -0.0789,-1.55932 0.84689,-0.70285 2.14783,0.32947 1.5705,1.24622 -0.35657,0.56621 -0.87746,0.67554 -1.49164,0.3131 z m 1.63329,-3.4016 c -1.46923,-1.46924 -0.7271,-3.5935 1.23599,-3.53785 2.25884,0.064 3.09276,2.91781 1.14669,3.92416 -1.07556,0.55619 -1.51073,0.48564 -2.38268,-0.38631 z m 6.84661,4.68923 c 0.17462,-0.17462 0.31749,-0.41275 0.31749,-0.52916 0,-0.30721 -1.52624,-0.26025 -1.71979,0.0529 -0.42398,0.68601 0.78271,1.09584 1.4023,0.47625 z m 7.51737,-5.78333 c 0.76505,-0.76506 0.77959,-0.8169 0.26663,-0.95104 -0.29838,-0.078 -0.61441,-0.42828 -0.70226,-0.77833 -0.15694,-0.6253 -0.67883,-0.90195 -0.67883,-0.35986 0,0.15214 -0.3022,0.57882 -0.67156,0.94818 -0.64467,0.64467 -0.65032,0.67711 -0.14105,0.81029 0.29177,0.0763 0.602,0.364 0.68939,0.63933 0.20962,0.66046 0.28825,0.64085 1.23768,-0.30857 z m 40.49127,14.12769 c -0.48916,-0.19738 -0.40132,-1.34648 0.12546,-1.64128 0.97113,-0.54347 1.87059,0.70681 1.07839,1.49901 -0.33082,0.33081 -0.64467,0.3679 -1.20385,0.14227 z m 26.552174,-3.23375 c -0.61167,-0.67589 -0.34267,-1.56217 0.5415,-1.78409 0.97581,-0.24491 1.60088,0.45664 1.26396,1.41859 -0.31558,0.90101 -1.16518,1.073 -1.80546,0.3655 z m -28.488324,-3.50366 c -0.21,-0.3924 -0.21985,-0.74098 -0.0325,-1.15209 0.22639,-0.49688 0.14756,-0.69564 -0.50195,-1.26558 -1.25324,-1.0997 -0.67837,-2.57594 1.0031,-2.57594 0.41189,0 0.64761,-0.19947 0.75868,-0.64199 0.4136,-1.64794 1.73159,-1.83483 2.35849,-0.33443 0.28174,0.67428 0.61654,0.95727 1.415893,1.19676 1.55511,0.46592 1.72488,1.42711 0.40482,2.29204 -0.50248,0.32924 -0.60855,0.56089 -0.46159,1.00807 0.54332,1.65325 -0.726473,2.75894 -1.863093,1.62231 -0.37493,-0.37492 -0.46854,-0.37492 -1.00382,0 -0.82945,0.58097 -1.72151,0.51694 -2.078,-0.14915 z m -29.29791,-5.31111 c -0.17463,-0.17463 -0.3175,-0.54455 -0.3175,-0.82206 0,-0.33538 -0.13051,-0.45448 -0.38922,-0.3552 -0.40454,0.15523 -1.19828,-0.45972 -1.19828,-0.92837 0,-0.14777 0.35665,-0.40329 0.79256,-0.56783 0.59267,-0.22371 0.83365,-0.51819 0.95548,-1.16764 0.22359,-1.19182 1.06203,-1.19732 1.36996,-0.009 0.13864,0.53504 0.41617,0.89536 0.73517,0.95451 1.16896,0.21676 1.65258,1.35774 0.5786,1.36505 -0.83719,0.006 -1.1869,0.28689 -1.39677,1.12308 -0.19409,0.77331 -0.61307,0.92439 -1.13,0.40745 z m 59.665884,-0.3769 c -0.10316,-0.10315 -0.18938,-0.79278 -0.19161,-1.53251 -0.005,-1.76917 -0.16256,-1.95725 -1.71847,-2.05558 -1.0395,-0.0657 -1.33526,-0.18749 -1.40998,-0.5806 -0.13287,-0.69899 0.42601,-0.97836 1.80959,-0.90456 1.19062,0.0635 1.19062,0.0635 1.32292,-2.04536 0.20863,-3.32581 1.41479,-3.25976 1.53221,0.0839 0.077,2.19277 0.077,2.19277 0.96919,2.0254 1.28361,-0.24081 1.99651,0.0544 1.99651,0.82675 0,0.60312 -0.0908,0.64363 -1.44312,0.64363 -1.44312,0 -1.44312,0 -1.52135,1.78594 -0.0769,1.75438 -0.62742,2.47148 -1.34589,1.753 z m -94.040574,-1.42759 c -1.28814,-0.51832 -0.95742,-2.64051 0.4115,-2.64051 1.34457,0 1.89892,1.55284 0.88267,2.47253 -0.54562,0.49378 -0.49941,0.48778 -1.29417,0.16798 z m 57.12885,-0.0476 c -0.66457,-0.66457 -0.16988,-1.79916 0.78444,-1.79916 0.25682,0 0.59439,0.23812 0.75015,0.52916 0.57165,1.06814 -0.69127,2.11332 -1.53459,1.27 z m -3.79045,-1.4425 c -0.19951,-0.24039 -0.48198,-0.80594 -0.62771,-1.25677 -0.20627,-0.63813 -0.60585,-0.98211 -1.80397,-1.55296 -1.97626,-0.9416 -2.02644,-1.68582 -0.15278,-2.26593 1.08268,-0.33521 1.29683,-0.53676 1.9197,-1.80677 1.09534,-2.23336 1.90027,-2.17932 2.68397,0.18017 0.3957,1.19134 0.52409,1.31872 1.73429,1.72069 1.94008,0.64439 1.77277,1.5707 -0.42087,2.33016 -0.81684,0.28279 -1.07898,0.54917 -1.3664,1.38848 -0.52772,1.541 -1.31551,2.047 -1.96623,1.26293 z m 104.389054,-0.99733 c -1.67206,-0.72801 -2.55649,-2.7172 -1.98203,-4.45782 1.07811,-3.2667 5.49102,-3.42006 6.82097,-0.23704 1.23585,2.9578 -1.88164,5.98247 -4.83894,4.69486 z m 2.53598,-2.26975 c 1.46615,-1.46615 -0.62351,-3.60025 -2.16198,-2.20795 -0.59246,0.53616 -0.62026,1.3663 -0.072,2.14908 0.51424,0.73417 1.53184,0.76099 2.23396,0.0589 z M 68.157796,177.3372 c -0.48755,-0.48756 -0.51399,-0.75841 -0.14188,-1.45371 0.5134,-0.95929 2.10736,-0.5645 2.10736,0.52195 0,1.25948 -1.11105,1.78618 -1.96548,0.93176 z m 17.73697,-0.61076 c -0.60571,-0.66931 -0.17048,-1.6193 0.74188,-1.6193 0.90842,0 1.25742,0.53859 0.86241,1.3309 -0.41568,0.83378 -1.01348,0.94125 -1.60429,0.2884 z m 62.881114,-1.21782 c -0.9977,-0.43373 -1.92104,-1.8061 -1.92245,-2.85738 -0.005,-3.53433 4.32464,-4.9592 6.27492,-2.06518 1.94115,2.88046 -1.11057,6.3319 -4.35247,4.92256 z m 2.58767,-2.27821 c 0.63828,-1.19265 -0.31985,-2.36626 -1.60008,-1.95993 -1.27066,0.40329 -0.8269,2.51374 0.52855,2.51374 0.51584,0 0.87428,-0.18526 1.07153,-0.55381 z m -58.058481,1.47281 c -0.43355,-0.43356 -0.60508,-2.79453 -0.26703,-3.67548 0.23031,-0.60017 1.35309,-0.52165 1.69573,0.11857 0.87633,1.63745 -0.33426,4.65135 -1.4287,3.55691 z m 35.561141,0.10863 c -2.23649,-0.89233 -2.9165,-3.70275 -1.30975,-5.41305 2.41317,-2.56871 6.90125,0.38105 5.36047,3.52313 -0.84998,1.73336 -2.50628,2.50613 -4.05072,1.88992 z m 1.96004,-2.23715 c 0.72119,-0.72119 0.10741,-2.23006 -0.90714,-2.23006 -0.50951,0 -1.32292,0.91932 -1.32292,1.49518 0,0.48244 0.76825,1.15065 1.32292,1.15065 0.27025,0 0.67847,-0.1871 0.90714,-0.41577 z m 9.90443,1.36771 c -0.2389,-0.52433 -0.23003,-0.76327 0.0404,-1.08916 0.74363,-0.89602 2.30278,0.1476 1.68732,1.12941 -0.47236,0.75352 -1.37568,0.73248 -1.72776,-0.0403 z m 27.38878,-1.11583 c -0.56452,-0.19652 -1.04447,-0.3591 -1.06656,-0.36129 -0.0221,-0.002 -0.28468,-0.39018 -0.58353,-0.86218 -0.53965,-0.85231 -0.55813,-0.85822 -2.69472,-0.86205 -3.90168,-0.007 -3.94783,-1.8592 -0.0488,-1.95968 1.3076,-0.0337 2.08348,-0.16675 2.15298,-0.3692 0.84673,-2.46614 4.82319,-2.9273 6.30328,-0.731 1.03778,1.53996 0.51319,4.32171 -0.92719,4.91666 -1.20388,0.49725 -2.1631,0.56724 -3.13544,0.22874 z m 2.34034,-2.30448 c 0.63868,-1.00404 -0.18506,-2.37775 -1.34461,-2.24235 -0.97771,0.11417 -1.34826,1.24373 -0.7217,2.19999 0.48283,0.73688 1.60982,0.75998 2.06631,0.0424 z m -152.141934,2.15087 c -0.7924,-0.7924 -0.34053,-1.41471 2.71014,-3.73235 3.04496,-2.31331 3.77612,-2.63174 4.37789,-1.90664 0.49157,0.5923 0.20959,1.00541 -1.76476,2.58543 -3.6779,2.94332 -4.79355,3.58328 -5.32327,3.05356 z m 33.79534,-0.36614 c -0.38125,-0.45937 -0.14343,-1.05754 0.60922,-1.53229 0.51095,-0.3223 1.26127,0.19674 1.26127,0.87249 0,0.99965 -1.22874,1.43307 -1.87049,0.6598 z m 58.808824,-0.69219 c -0.4125,-0.41249 -0.40593,-1.13704 0.0132,-1.46017 0.47447,-0.36578 1.63483,-0.002 1.74025,0.54521 0.18797,0.97602 -1.04766,1.62077 -1.75347,0.91496 z m 79.05542,-0.44672 c -1.36713,-0.55454 -3.70209,-2.47803 -3.70209,-3.0497 0,-1.57862 1.55019,-1.211 4.33513,1.02805 1.1218,0.90191 0.61293,2.52704 -0.63304,2.02165 z M 13.675746,168.80245 c -0.85443,-0.94413 -0.20484,-2.42656 1.0633,-2.42656 0.76143,0 1.49611,0.89697 1.28346,1.56697 -0.41324,1.30198 -1.56471,1.72375 -2.34676,0.85959 z m 18.23374,-0.89294 c -0.34798,-0.49682 -0.35531,-0.66311 -0.0495,-1.12448 0.6861,-1.03522 2.01541,-0.70783 2.01541,0.49638 0,1.2229 -1.26595,1.62738 -1.96587,0.6281 z m 148.582424,-2.08727 c -2.60491,-1.60308 -3.18397,-2.77834 -1.52936,-3.10397 1.25483,-0.24695 5.1309,2.87736 4.71154,3.79774 -0.41126,0.90263 -0.68515,0.84291 -3.18218,-0.69377 z M 48.692026,164.89078 c -7.65572,-0.93167 -13.59506,-5.56793 -15.91576,-12.42389 -0.71227,-2.10425 -1.15236,-67.10042 -0.48089,-71.022246 1.10331,-6.443975 5.29964,-11.1404 12.36662,-13.840401 2.33723,-0.892961 115.067264,-1.058204 118.292414,-0.1734 6.4225,1.761987 11.06499,6.367814 12.92524,12.823176 0.74385,2.581267 0.76772,67.940001 0.026,71.127501 -1.4128,6.07121 -6.04564,10.8641 -12.3931,12.82121 -1.62508,0.50106 -110.972654,1.15631 -114.820504,0.68805 z m 78.052084,-4.29856 c 1.96453,-0.005 10.06078,5.3e-4 17.99166,0.0117 15.0081,0.0211 16.66772,-0.0211 16.66836,-0.42369 2.2e-4,-0.13339 0.0693,-0.17359 0.1536,-0.0893 0.1967,0.1967 2.35088,-0.53106 3.55096,-1.19964 3.07633,-1.71388 5.25512,-4.26822 6.45797,-7.57108 0.65228,-1.79105 1.02701,-65.225514 0.40703,-68.901166 -0.92384,-5.477163 -5.50181,-9.974249 -11.36745,-11.16662 -3.86242,-0.785151 -112.025704,-0.44309 -114.427754,0.361876 -4.62696,1.550564 -7.9035,4.712207 -9.34971,9.021857 -0.89036,2.653241 -0.90404,67.411603 -0.0148,70.290483 1.66608,5.39413 6.55484,9.09212 12.80414,9.68539 0.60821,0.0577 50.052773,0.0451 77.126034,-0.0198 z m -62.706254,-7.72265 c -4.86339,-0.44462 -8.29878,-2.72745 -9.83705,-6.53675 -0.98259,-2.43328 -0.96469,-59.306108 0.0195,-61.977363 1.41597,-3.843102 3.80799,-6.098471 7.68803,-7.248818 2.30264,-0.682681 85.040964,-0.612497 87.593324,0.0743 3.27433,0.881068 5.73014,2.889424 7.09717,5.804056 1.11086,2.368452 1.11155,61.223925 8e-4,63.593485 -1.28825,2.74806 -3.38213,4.56606 -6.72558,5.8394 -1.62452,0.6187 -79.525364,1.02863 -85.836144,0.45169 z m 1.07354,-3.45542 c 0.40099,-0.74926 0.0651,-1.04852 -1.66882,-1.48688 -0.764,-0.19314 -1.9722,-0.71113 -2.68489,-1.15107 -1.32094,-0.81541 -1.8994,-0.84402 -2.18187,-0.10792 -0.60207,1.56896 5.73952,4.23333 6.53558,2.74587 z m 4.22718,0.0115 c 0.21693,-0.40534 0.21098,-0.644 -0.0231,-0.92604 -0.74218,-0.89427 -2.12397,-0.0857 -1.58251,0.92604 0.16075,0.30035 0.52201,0.54609 0.80281,0.54609 0.2808,0 0.64206,-0.24574 0.8028,-0.54608 z m 75.239634,-5.41107 c 2.64364,-0.76853 6.77215,-4.12587 6.77215,-5.50717 0,-0.22588 0.10978,-0.47854 0.24396,-0.56147 1.18327,-0.7313 2.12808,-9.80611 1.53017,-14.69711 -0.48266,-3.94835 -3.01987,-7.45636 -6.40434,-8.85482 -2.47177,-1.02133 -2.32279,-0.72799 -2.31402,-4.55628 0.012,-5.25319 -0.004,-5.10974 0.5791,-5.10974 5.60299,0 8.97542,-10.053671 5.24589,-15.638686 -2.83237,-4.241493 -4.07041,-4.586793 -16.47555,-4.595153 -11.12201,-0.0075 -11.73511,0.101642 -13.58342,2.418058 -0.67239,0.842674 -0.67239,0.842674 -1.6761,-0.297603 -1.95715,-2.223442 -0.91658,-2.117267 -21.191211,-2.16223 -12.396993,-0.02749 -18.036173,-0.127961 -18.274283,-0.325578 -0.25209,-0.209219 -0.50742,-0.171622 -0.95273,0.140287 -0.49496,0.346681 -1.0834,0.400521 -3.15697,0.288856 -7.56679,-0.407482 -11.34025,1.249479 -13.66458,6.000229 -2.2874,4.675277 -0.51847,10.94245 3.81336,13.51036 1.66495,0.987 2.18587,9.09345 0.62187,9.67754 -6.75042,2.52106 -9.48036,10.17837 -7.31976,20.53148 0.23762,1.13858 0.45405,2.20697 0.48098,2.37419 0.0269,0.16722 0.16772,0.46487 0.31288,0.66146 0.14517,0.19658 0.4376,0.70434 0.64987,1.12835 1.61727,3.23065 5.66853,5.66753 9.91093,5.96154 5.59763,0.38793 73.392014,0.0379 74.851804,-0.38651 z M 86.915126,138.357 c -1.27851,-0.55171 -1.30969,-0.73702 -1.37996,-8.20332 -0.0827,-8.78441 -0.26938,-8.03932 2.12095,-8.46404 2.32223,-0.41261 3.758953,-0.0146 4.043783,1.12023 0.2442,0.97296 -0.31447,1.85718 -1.02792,1.62693 -2.811053,-0.90721 -3.615373,-0.41916 -3.615373,2.19376 0,2.07191 0,2.07191 1.69085,1.81922 2.161213,-0.32299 2.542483,-0.1741 2.542483,0.99284 0,1.1324 -0.18396,1.24964 -2.506743,1.59756 -2.99419,0.44849 -2.91245,4.75686 0.0913,4.81244 2.291423,0.0424 3.045063,0.80798 2.164923,2.19918 -0.28364,0.44834 -3.278913,0.66999 -4.124293,0.3052 z m 16.214924,-0.41671 c -0.99219,-0.68763 -0.99219,-0.68763 -0.99219,-7.90356 0,-9.31528 0.18942,-9.53617 4.41745,-5.1513 4.81029,4.98873 1.75246,16.6432 -3.42526,13.05486 z m 3.36297,-2.66663 c 2.04605,-2.20773 1.27071,-6.67811 -1.5443,-8.90392 -1.30196,-1.02944 -2.4383,7.71829 -1.19692,9.21407 0.51549,0.62113 2.03775,0.4489 2.74122,-0.31015 z m 11.46857,3.01844 c -1.27441,-0.46631 -1.42959,-1.73705 -1.32913,-10.88439 0.0431,-3.91961 0.14053,-5.25772 0.38821,-5.32897 3.79589,-1.09201 5.6224,-0.7119 5.6224,1.17009 0,1.11576 -0.0416,1.1854 -0.66146,1.10756 -1.668,-0.20945 -3.17509,-0.15497 -3.45496,0.1249 -0.4533,0.4533 -0.48345,4.21258 -0.033,4.11944 2.88489,-0.59655 4.00906,-0.35377 4.00906,0.8658 0,0.94743 -0.40227,1.20603 -2.39509,1.5397 -3.06609,0.51336 -3.09256,4.78911 -0.03,4.84655 2.18662,0.041 2.06605,-0.008 2.30233,0.93355 0.38149,1.51997 -2.08353,2.36006 -4.41831,1.50577 z m 16.40958,-0.2731 c -1.19638,-0.69365 -1.69673,-14.7244 -0.56533,-15.85307 0.39731,-0.39637 3.23448,1.76169 4.5066,3.4279 4.12636,5.40466 0.99214,15.28553 -3.94127,12.42517 z m 3.15711,-2.66549 c 2.06568,-2.20514 1.50301,-6.21521 -1.22157,-8.70595 -1.49281,-1.3647 -1.49281,-1.3647 -1.56483,3.7506 -0.0551,3.91524 0.007,5.16541 0.26458,5.32893 0.66537,0.42229 1.95529,0.2312 2.52182,-0.37358 z m -44.783761,2.71097 c -0.40982,-0.66312 -0.27902,-15.16638 0.14147,-15.68567 0.54386,-0.67162 0.77106,-0.38365 1.83454,2.32522 3.47972,8.86348 4.36821,9.54221 4.50691,3.44293 0.11808,-5.19231 0.18043,-5.82673 0.58023,-5.90347 0.960841,-0.18444 1.401411,14.48354 0.463201,15.42132 -0.708871,0.70855 -2.826641,-2.66575 -5.560511,-8.85973 -0.64229,-1.45521 -0.64229,-1.45521 -0.79388,3.96874 -0.0834,2.98318 -0.17267,5.45373 -0.19844,5.49011 -0.12619,0.17816 -0.82914,0.0341 -0.97352,-0.19945 z m 31.241551,0.0335 c -0.38434,-0.62189 -0.42391,-15.26767 -0.0426,-15.78431 0.53162,-0.72037 0.70666,-0.47953 2.21809,3.0518 1.44156,3.36811 3.9497,8.46667 4.16503,8.46667 0.0759,0 0.1258,-2.51557 0.11086,-5.59015 -0.0273,-5.62176 0.116,-6.58085 0.87076,-5.82704 0.52269,0.52202 0.62045,14.54079 0.10631,15.24366 -0.61148,0.83593 -1.03845,0.23842 -3.7592,-5.26074 -2.49754,-5.04802 -2.49754,-5.04802 -2.49811,-0.2366 -5.3e-4,5.23458 -0.38881,7.20248 -1.1711,5.93671 z m 19.0665,-0.82963 c -2.21047,-1.94082 -2.6094,-6.7793 -0.9292,-11.27003 2.0679,-5.52698 6.76552,-4.55864 7.27366,1.49934 0.59896,7.14085 -3.00984,12.69853 -6.34446,9.77069 z m 2.90985,-1.96981 c 1.72592,-1.20889 2.64999,-8.28878 1.26305,-9.67708 -1.28563,-1.2869 -2.83231,-0.60868 -3.8338,1.68111 -1.86002,4.25277 -0.0634,9.84099 2.57075,7.99597 z m -82.185154,2.11028 c -0.27561,-0.33209 -0.27688,-0.69713 -0.007,-1.92704 0.18332,-0.83454 0.3921,-1.93407 0.46395,-2.44339 0.0718,-0.50932 0.2327,-1.05382 0.35744,-1.20999 0.12474,-0.15617 0.80587,-1.88258 1.51361,-3.83646 1.60717,-4.43696 2.10602,-5.43775 2.50938,-5.03439 0.31286,0.31286 1.83117,11.11705 1.87809,13.36433 0.0547,2.62195 -1.18445,1.32618 -1.57946,-1.65158 -0.16769,-1.26413 -0.23373,-1.36497 -0.8749,-1.33603 -2.00714,0.0906 -2.17994,0.23552 -2.77822,2.32996 -0.58517,2.04852 -0.91194,2.43289 -1.48319,1.74459 z m 4.46262,-7.2147 c -0.0752,-2.38504 -0.34137,-2.72529 -0.8795,-1.12448 -0.26905,0.80036 -0.54411,1.60403 -0.61125,1.78594 -0.0811,0.21981 0.15364,0.33073 0.7,0.33073 0.77911,0 0.82042,-0.0518 0.79075,-0.99219 z m 3.56855,6.90154 c -1.00914,-4.02076 0.34107,-15.16977 1.83715,-15.16977 4.3688,0 4.64775,9.12634 0.30385,9.94126 -0.91574,0.1718 -0.91574,0.1718 -0.91574,2.63425 0,3.17001 -0.70572,4.66425 -1.22526,2.59426 z m 3.32272,-8.45858 c 1.15166,-1.4641 0.36363,-4.32994 -1.19063,-4.32994 -0.63488,0 -0.64225,0.0289 -0.64225,2.51354 0,2.82299 0.58504,3.40277 1.83288,1.8164 z m 3.11516,8.99656 c -0.10205,-0.10204 -0.18554,-3.41715 -0.18554,-7.3669 0,-8.17705 0.0205,-8.27099 1.74006,-7.99194 3.6781,0.59687 5.68189,6.76046 3.02528,9.30565 -0.75321,0.72163 -0.75321,0.72163 0.41573,2.30952 0.84501,1.14787 1.16893,1.83873 1.16893,2.49312 0,1.18099 -0.71736,1.51652 -1.2919,0.60425 -1.9604,-3.11277 -3.60366,-3.80362 -3.73518,-1.57032 -0.12818,2.17646 -0.48403,2.86998 -1.13738,2.21662 z m 3.53898,-8.01448 c 1.25085,-1.25085 0.84118,-3.20695 -0.8931,-4.2644 -1.44928,-0.88368 -1.5085,-0.79496 -1.5085,2.25967 0,3.17282 0.6723,3.73402 2.4016,2.00473 z m 28.217094,8.02056 c -0.65534,-0.65534 -0.0869,-2.06711 0.93286,-2.31668 0.70232,-0.17188 0.92317,-3.19908 0.72163,-9.89142 -0.003,-0.10914 -0.27117,-0.19844 -0.59531,-0.19844 -1.13962,0 -1.68004,-1.16244 -1.02247,-2.19935 0.25199,-0.39737 3.11809,-0.46428 4.40188,-0.10277 1.37715,0.38781 1.2009,2.59855 -0.19843,2.48911 -0.99219,-0.0776 -0.99219,-0.0776 -0.99219,4.69635 0,4.77395 0,4.77395 0.89773,4.77395 0.97177,0 1.21894,0.32313 1.21894,1.59353 0,0.92341 -4.60491,1.91546 -5.36464,1.15572 z m 23.0631,-21.48346 c -1.00969,-0.90251 -0.98148,-0.44974 -0.78801,-12.64747 0.11815,-7.449537 0.36952,-8.230952 2.73346,-8.497404 3.03882,-0.342516 3.38039,1.837341 2.61195,16.668734 -0.25579,4.93697 -2.05968,6.70869 -4.5574,4.47614 z m -58.005364,-0.32997 c -0.87315,-0.68682 -1.22318,-2.02747 -1.10158,-4.21915 0.0525,-0.94589 0.12443,-4.04151 0.1599,-6.87917 0.14695,-11.758831 0.32568,-12.711992 2.5891,-13.807693 1.92335,-0.931079 3.78579,-0.194839 6.60792,2.612171 1.15364,1.147466 1.15364,1.147466 2.85291,-0.442122 2.84098,-2.657594 4.688883,-3.245299 6.457193,-2.053637 1.83451,1.236276 2.06928,2.236607 2.77855,11.839201 0.87922,11.90367 0.85786,12.30441 -0.69872,13.10935 -2.68922,1.39065 -4.05469,-0.20007 -4.32593,-5.03956 -0.0979,-1.74625 -0.220143,-3.53219 -0.271703,-3.96875 -0.0516,-0.43656 -0.16729,-1.80578 -0.25715,-3.0427 -0.36809,-5.0667 -0.29051,-4.927331 -1.91594,-3.44178 -2.56592,2.34511 -4.00213,2.3378 -6.57465,-0.0335 -1.53859,-1.418223 -1.40981,-1.913375 -1.59595,6.13664 -0.21657,9.36604 -1.45138,11.78914 -4.70395,9.23067 z m 48.724584,0.13642 c -0.6728,-0.3653 -1.54253,-1.57849 -5.11413,-7.1337 -3.61128,-5.61692 -4.4525,-6.78368 -4.63982,-6.4354 -0.10353,0.1925 -0.32545,2.37405 -0.49317,4.8479 -0.47978,7.07703 -0.69478,7.76356 -2.57937,8.23657 -3.44515,0.86467 -3.9138,-0.97867 -3.00214,-11.80844 0.14088,-1.67349 0.31996,-4.054737 0.39796,-5.291664 0.38702,-6.137592 0.67723,-6.952426 2.73093,-7.667791 2.36325,-0.823185 2.91726,-0.201599 10.7176,12.024765 1.63453,2.56199 1.66181,2.52653 1.87135,-2.43225 0.36322,-8.595515 0.61074,-9.333057 3.13224,-9.333057 2.5044,0 2.92288,1.101577 2.59434,6.829258 -0.1393,2.428539 -0.38937,7.088789 -0.55572,10.356119 -0.40678,7.9899 -1.53065,9.72402 -5.06007,7.80769 z m -23.36664,-0.10778 c -1.532241,-0.62713 -1.587501,-0.88887 -1.587501,-7.51882 0,-12.631658 0.15139,-13.459098 2.527761,-13.815452 2.73059,-0.409469 3.16603,0.816671 3.13774,8.835482 -0.0425,12.0625 -0.64354,13.90449 -4.078,12.49879 z M 67.375866,96.651097 c -0.24861,-0.248606 -0.42759,-0.862674 -0.42759,-1.46702 0,-0.980929 -0.0451,-1.039434 -0.80205,-1.039434 -0.90372,0 -1.28757,-0.585602 -0.78265,-1.193993 0.17962,-0.216429 0.60966,-0.393507 0.95564,-0.393507 0.52557,0 0.62906,-0.133453 0.62906,-0.811143 0,-1.010439 0.42316,-1.83469 0.9419,-1.83469 0.5122,0 0.894,1.023681 0.72044,1.93162 -0.11707,0.612441 -0.0473,0.71479 0.48963,0.718264 1.4891,0.0096 1.78967,1.337146 0.35834,1.582698 -0.72847,0.12497 -0.8009,0.237744 -0.92281,1.43673 -0.14381,1.414436 -0.49336,1.737029 -1.15991,1.070475 z m 76.442884,-0.966542 c -0.0665,-0.192108 -0.15527,-0.766006 -0.19726,-1.275328 -0.0586,-0.710769 -0.18328,-0.90813 -0.53637,-0.848985 -0.50019,0.08378 -1.52683,-0.376547 -1.5203,-0.681678 0.0111,-0.516474 0.57159,-0.967284 1.23726,-0.995084 0.61525,-0.02569 0.75847,-0.163851 0.83263,-0.803167 0.19507,-1.681871 1.51817,-1.717579 1.67964,-0.04533 0.0697,0.721977 0.20902,0.879867 0.87663,0.99354 1.2117,0.206314 1.27466,1.256059 0.0822,1.370557 -0.82607,0.07932 -0.88348,0.151911 -1.00824,1.274731 -0.13404,1.206386 -1.13605,1.906685 -1.44619,1.010744 z m -43.81791,-4.69456 c -1.029161,-1.02916 -1.084681,-2.643534 -0.123961,-3.604252 0.957601,-0.957604 2.702731,-0.913508 3.666691,0.09265 2.22643,2.323894 -1.26735,5.786983 -3.54273,3.511602 z m 34.21285,0.432131 c -1.50936,-0.865188 -2.32669,-3.098316 -1.13399,-3.098316 0.29405,0 0.73262,-0.324961 0.98198,-0.727604 1.01326,-1.636125 1.67087,-1.759299 2.47201,-0.463021 0.31478,0.509323 0.78616,0.926042 1.04752,0.926042 0.74428,0 1.16164,0.652192 0.67553,1.055626 -0.22007,0.182645 -0.40013,0.473824 -0.40013,0.64706 0,1.130361 -2.54436,2.289921 -3.64292,1.660213 z M 63.991686,107.95444 c 0.0569,-0.39975 -0.22749,-0.9517 -0.83951,-1.62914 -0.5091,-0.56351 -1.13538,-1.36179 -1.39174,-1.77397 -0.93467,-1.50275 -1.46109,-1.94026 -1.99242,-1.6559 -0.76911,0.41162 -0.5926,1.10887 0.74124,2.92792 2.03927,2.7811 3.28155,3.54132 3.48243,2.13109 z m 3.84839,-26.834096 c 0.40272,-0.638445 -0.25336,-1.3403 -0.91958,-0.983747 -0.575,0.307729 -0.64481,0.794208 -0.18058,1.258437 0.38592,0.385924 0.73907,0.297749 1.10016,-0.27469 z M 164.10025,128.001 c -0.96674,-0.90066 -0.90113,-26.67917 0.0704,-27.65067 1.01891,-1.018912 2.27918,-0.835032 2.93223,0.42782 0.78732,1.5225 0.54754,26.303 -0.26234,27.11289 -0.79859,0.79859 -1.95145,0.84485 -2.74026,0.10996 z M 43.470886,120.04351 c -1.23299,-0.3562 -2.8635,-2.02 -3.25043,-3.31681 -1.24247,-4.16411 2.82624,-7.73308 6.77258,-5.94074 5.27141,2.39416 2.04793,10.8667 -3.52215,9.25755 z m 3.46625,-2.94262 c 0.49407,-0.59896 0.49407,-0.59896 -1.50697,-0.67598 -3.21456,-0.12372 -3.23144,-2.30423 -0.0178,-2.30423 1.84356,0 2.27665,-0.61022 0.92805,-1.30761 -2.73566,-1.41467 -5.59154,1.79615 -3.71712,4.17909 1.02721,1.30589 3.27955,1.36266 4.31389,0.10873 z m -2.94388,-29.023566 c -3.37976,-2.12599 -1.9754,-7.164852 1.99577,-7.160857 2.64999,0.0027 4.46834,2.842704 3.37393,5.269677 -0.92995,2.062265 -3.60178,3.003269 -5.3697,1.89118 z m 2.991,-2.25503 c 0.77178,-0.771771 0.82344,-1.458312 0.17043,-2.264746 -1.00152,-1.236824 -2.96058,-0.429276 -2.96058,1.220391 0,1.587558 1.63498,2.199531 2.79015,1.044355 z M 190.25959,163.67924 c -1.81825,-0.94483 -2.26444,-1.7429 -2.26444,-4.05023 0,-4.27863 4.15729,-6.23515 6.93268,-3.26267 3.27162,3.50394 -0.53192,9.46227 -4.66824,7.3129 z m 2.59087,-1.82715 c 0.45827,-0.15976 0.83323,-0.47015 0.83323,-0.68977 0,-0.27708 -0.14172,-0.34049 -0.46302,-0.20718 -0.51248,0.21263 -0.61512,0.21103 -1.85209,-0.0288 -1.10641,-0.21455 -1.2125,0.51419 -0.13229,0.90871 0.40018,0.14616 0.73961,0.27515 0.75427,0.28663 0.0147,0.0115 0.40162,-0.10982 0.8599,-0.26957 z m 1.09781,-3.13881 c 0,-1.50187 -2.44172,-2.14483 -3.42038,-0.90067 -0.81326,1.0339 -0.69733,1.23736 0.59467,1.04362 0.62868,-0.0943 1.43235,-0.0558 1.78594,0.0855 0.93072,0.37189 1.03977,0.34794 1.03977,-0.22843 z M 9.3220257,161.0313 c -0.75669,-0.75669 -0.0604,-1.91173 1.0570003,-1.75333 1.11841,0.15855 0.8454,2.07083 -0.29564,2.07083 -0.2441203,0 -0.5867303,-0.14287 -0.7613603,-0.3175 z m 14.6743903,-0.68172 c -0.41295,-0.25079 -0.96922,-0.87956 -1.23617,-1.39726 -0.47605,-0.92323 -0.52964,-0.94719 -2.79576,-1.2504 -2.24363,-0.30019 -4.3355,-1.11147 -5.48739,-2.12814 -0.3601,-0.31783 -1.05651,-0.4265 -2.77813,-0.43351 -3.2806403,-0.0134 -4.8123103,-1.08221 -5.6283603,-3.9276 -0.48697,-1.69795 0.68662,-4.35148 2.12669,-4.80855 0.29271,-0.0929 0.75455,-0.67158 1.02632,-1.28596 1.6805903,-3.79925 6.5735403,-4.02476 8.5011403,-0.3918 0.51038,0.96191 0.86227,1.28935 1.63415,1.52061 3.65862,1.09615 3.62577,6.19664 -0.0532,8.26435 -1.41994,0.79805 -1.34177,0.8921 0.98678,1.18733 2.02752,0.25706 2.02752,0.25706 2.71198,-0.51257 1.98139,-2.22797 4.91459,-1.96572 6.14071,0.54903 1.5399,3.1583 -2.13026,6.44762 -5.14873,4.61447 z m 3.04509,-2.08449 c 0.90224,-0.81652 0.45046,-2.07474 -0.9199,-2.56194 -0.56319,-0.20024 -1.77124,0.87594 -1.77124,1.5779 0,1.22272 1.72886,1.85489 2.69114,0.98404 z m -14.39273,-5.25001 c 0.27997,-0.22128 -0.3841,-0.92406 -1.00122,-1.0596 -0.97001,-0.21305 -2.1071603,-1.35496 -2.2976103,-2.30721 -0.32536,-1.62679 -1.56284,-0.84788 -1.30164,0.81929 0.29277,1.86877 3.3307503,3.55106 4.6004703,2.54752 z m 5.15723,-0.10634 c 3.13578,-1.34415 3.0346,-4.44979 -0.16059,-4.92894 -1.25388,-0.18803 -1.29334,-0.2342 -1.62999,-1.90746 -0.57598,-2.86278 -4.67627,-2.33521 -5.07703,0.65324 -0.35799,2.66958 0.94409,3.66739 4.46003,3.41782 2.67182,-0.18965 3.1311,-0.0786 3.1311,0.75679 0,0.66116 -1.05419,1.1882 -2.37663,1.1882 -0.90968,0 -1.10953,0.21234 -0.77975,0.82853 0.33537,0.62664 0.95675,0.62455 2.43286,-0.008 z m -4.89887,-4.8103 c -0.95068,-0.55371 -0.29253,-2.36005 0.85989,-2.36005 1.07137,0 1.75368,1.58007 1.00542,2.32833 -0.38428,0.38428 -1.23516,0.39876 -1.86531,0.0317 z m 167.540204,8.13816 c -0.90889,-0.45148 -0.98491,-1.36022 -0.15906,-1.90134 1.30637,-0.85597 2.44854,0.7465 1.28354,1.80081 -0.39134,0.35415 -0.57996,0.37101 -1.12448,0.10053 z m 7.16024,-3.60165 c -0.15064,-0.28148 -0.27389,-0.6982 -0.27389,-0.92604 0,-0.29552 -0.26035,-0.41427 -0.90821,-0.41427 -0.69363,0 -0.95038,-0.13283 -1.08665,-0.5622 -0.20838,-0.65655 0.21892,-1.01528 1.21644,-1.02125 0.57967,-0.003 0.71255,-0.16541 0.92604,-1.12853 0.27347,-1.23375 1.22191,-1.64277 1.38041,-0.59531 0.23631,1.56169 0.33322,1.71978 1.0567,1.72384 1.71844,0.01 1.80798,1.36414 0.10141,1.534 -0.65206,0.0649 -0.87002,0.23684 -1.00624,0.79375 -0.27964,1.14332 -0.95898,1.43129 -1.40601,0.59601 z m 8.87313,-2.81442 c -1.0665,-1.0665 -0.0994,-1.70089 2.59292,-1.70089 2.13529,0 2.81214,0.23107 2.81214,0.96006 0,0.82937 -0.82342,1.1566 -2.91042,1.1566 -1.5371,0 -2.18722,-0.10835 -2.49464,-0.41577 z m -170.393394,-0.6236 c -0.59657,-0.6592 -0.32741,-1.55171 0.53308,-1.76768 0.78761,-0.19768 1.43413,0.28322 1.43413,1.06674 0,1.18735 -1.15468,1.59878 -1.96721,0.70094 z m 173.205534,-6.15729 c -0.43861,-0.43862 -0.39784,-1.40311 0.0759,-1.79632 0.53005,-0.4399 1.64785,-0.12799 1.85255,0.51694 0.37299,1.1752 -1.07323,2.13464 -1.92849,1.27938 z m -17.46552,-1.28031 c -0.54048,-0.50353 -0.57906,-0.77756 -0.57906,-4.11307 0,-5.27948 -0.83728,-4.87246 10.0231,-4.87246 8.72424,0 8.72424,0 8.90977,-1.48495 0.32203,-2.5774 3.1222,-4.76358 4.74202,-3.70224 1.18125,0.77399 0.82112,1.42195 -1.09439,1.96907 -1.20156,0.3432 -1.67842,1.15177 -1.67842,2.84598 0,2.03901 -0.98422,2.43373 -6.15156,2.46705 -3.37344,0.0218 -3.37344,0.0218 -3.37344,3.19676 0,4.09387 -7.58393,6.68824 -10.79802,3.69386 z m 8.68136,-4.22303 c 0,-2.64583 0,-2.64583 -3.57188,-2.64583 -3.25555,0 -5.35219,3.15857 -3.39548,5.11528 1.74021,1.74021 6.96736,-0.11245 6.96736,-2.46945 z M 6.7454257,141.13348 c -1.06105,-0.77586 -0.7582,-4.65551 0.36341,-4.65551 0.85303,0 1.10194,0.57764 1.10194,2.55715 0,2.14114 -0.47555,2.82212 -1.46535,2.09836 z m 14.6206103,-0.73963 c -3.68244,-0.98677 -4.21572,-5.36568 -0.83555,-6.86089 0.61874,-0.27369 1.75789,-0.97319 2.53145,-1.55443 1.53514,-1.15348 1.72902,-1.20637 2.73768,-0.74679 4.58609,2.08956 0.52116,10.48983 -4.43358,9.16211 z m 2.42901,-2.18256 c 1.32163,-0.68345 2.09779,-2.51259 1.74594,-4.11457 -0.21466,-0.97732 -0.7239,-1.01087 -1.78546,-0.11763 -0.44193,0.37186 -1.37343,0.96491 -2.06999,1.31788 -1.58082,0.80106 -1.68745,0.97726 -1.18245,1.95383 0.6971,1.34804 1.87686,1.69226 3.29196,0.96049 z M 7.6816157,133.00645 c -3.89414,-1.54824 -3.839,-7.46509 0.0834,-8.94706 4.5828403,-1.73152 8.6149103,3.90479 5.4070403,7.55835 -1.36242,1.55171 -3.6348003,2.12647 -5.4904103,1.38871 z m 3.7245103,-2.59354 c 2.10781,-2.10781 -0.47047,-5.80068 -3.0718103,-4.39977 -2.50617,1.34966 -1.6197,5.17317 1.19938,5.17317 0.8619503,0 1.2658803,-0.16685 1.8724303,-0.7734 z M 9.3142657,128.3691 c 0.0513,-0.2662 0.31102,-0.52596 0.57723,-0.57722 0.3495303,-0.0673 0.4581103,0.0413 0.3907903,0.3908 -0.0513,0.2662 -0.3110103,0.52595 -0.5772203,0.57722 -0.34954,0.0673 -0.45811,-0.0413 -0.3908,-0.3908 z M 179.51578,126.83842 c -0.53226,-0.81232 -0.12606,-1.73753 0.76284,-1.73753 1.20037,0 1.73674,1.56453 0.72246,2.10736 -0.75912,0.40627 -1.01922,0.34151 -1.4853,-0.36983 z M 16.772816,125.2563 c -1.56236,-0.72745 -3.27806,-2.19083 -4.06898,-3.47056 -0.48637,-0.78696 -0.70953,-0.90118 -2.05629,-1.05248 -11.58394029,-1.30134 -11.32141029,-5.33746 0.44874,-6.89883 1.22664,-0.16272 1.54175,-0.35316 3.01253,-1.82062 4.16603,-4.15666 10.3172,-3.15401 12.90551,2.1036 3.2723,6.64698 -3.67072,14.19836 -10.24151,11.13889 z m 5.7614,-2.21565 c 1.37592,-0.71481 3.13906,-2.76019 3.13906,-3.64157 0,-0.43584 -1.72496,-0.21733 -2.50627,0.31749 -0.72857,0.49871 -1.30027,0.44585 -1.85935,-0.17193 -0.26339,-0.29104 -0.79917,-0.52917 -1.19063,-0.52917 -0.39145,0 -0.92723,0.23813 -1.19062,0.52917 -0.59403,0.65639 -0.98316,0.66778 -1.54653,0.0453 -0.51345,-0.56735 -3.34826,-0.81906 -3.34826,-0.29729 0,3.21312 5.1567,5.48625 8.5026,3.74803 z m -4.20207,-7.41744 c 0.29437,-0.0549 0.63301,0.2103 0.92604,0.72515 0.57816,1.01584 1.55446,1.1076 1.9074,0.17927 0.4949,-1.30167 1.86186,-1.21032 1.86186,0.12442 0,0.89086 -0.0704,0.86789 1.47034,0.47993 1.35195,-0.34043 1.42614,-0.60666 0.62835,-2.25468 -2.41027,-4.97896 -11.32501,-3.79203 -11.35663,1.51205 -0.006,0.93561 3.24041,1.03502 3.70169,0.11336 0.21828,-0.43614 0.60571,-0.83191 0.86095,-0.8795 z m 175.404454,9.95393 c -0.20584,-0.20584 -0.3175,-1.27588 -0.3175,-3.04271 0,-2.75016 -1.0209,-3.30655 -5.0142,-2.73272 -3.76017,0.54032 -4.24691,-0.2917 -4.2426,-7.25227 0.005,-8.60649 -0.99015,-7.82147 9.91826,-7.82147 10.92779,0 9.92188,-0.76845 9.92188,7.57966 0,7.74041 0.10535,7.5933 -5.34874,7.4681 -2.98564,-0.0685 -2.98564,-0.0685 -3.05149,2.42987 -0.0963,3.65278 -0.62638,4.61077 -1.86561,3.37154 z m 8.17801,-8.34761 c 0.12793,-2.05365 0.18389,-9.55468 0.074,-9.92187 -0.20196,-0.67502 -15.55874,-0.71823 -15.81727,-0.0445 -0.0883,0.23019 -0.1606,2.48264 -0.1606,5.00545 0,2.52281 0.0723,4.77526 0.1606,5.00544 0.25901,0.67497 15.70115,0.63132 15.74324,-0.0445 z m -13.85332,-1.04228 c -0.41398,-0.10818 -0.46302,-0.52524 -0.46302,-3.93805 0,-4.13571 5.19493,-6.40347 5.71352,-2.49414 0.1524,1.14885 0.25477,1.32291 0.77803,1.32291 0.5224,0 0.62675,-0.17595 0.78449,-1.32291 0.27229,-1.97978 5.53855,-2.10691 5.83339,-0.14083 0.12936,0.86266 0.0247,6.30022 -0.12823,6.66248 -0.009,0.0217 -1.25539,0.0339 -2.76944,0.0273 -3.05986,-0.0135 -3.06801,-0.0201 -3.06801,-2.49936 0,-1.90825 -1.17528,-1.06445 -1.2694,0.91137 -0.0768,1.6117 -2.42786,2.25093 -5.41133,1.47126 z m 3.18659,-3.85251 c -0.0959,-2.36628 -1.56888,-3.09961 -1.7506,-0.87153 -0.16174,1.98312 0.13752,2.78976 1.03499,2.78976 0.79335,0 0.79335,0 0.71561,-1.91823 z m 7.20192,0.53337 c 0.002,-0.76629 0.0754,-1.66115 0.16315,-1.98857 0.14392,-0.53704 0.0659,-0.59532 -0.79736,-0.59532 -1.38616,0 -1.54493,3.81139 -0.16315,3.91668 0.78871,0.0601 0.79377,0.0516 0.79736,-1.33279 z M 7.8139057,111.28866 c -4.04945,-1.41165 -4.08228,-7.40119 -0.0489,-8.9251 2.19426,-0.82905 4.7468203,0.22247 5.9001703,2.43056 0.3253,0.62279 0.54468,0.7276 1.52287,0.7276 0.8068,0 1.28363,0.15559 1.62171,0.52917 0.73048,0.80717 -0.0683,1.5875 -1.62495,1.5875 -1.05039,0 -1.17705,0.0741 -1.51715,0.88813 -0.91247,2.18384 -3.7167903,3.50709 -5.8537303,2.76214 z m 2.7781203,-2.14017 c 1.3919,-0.7032 1.5931,-3.4323 0.32651,-4.4286 -1.4090503,-1.10836 -3.3864103,-0.49583 -4.0521703,1.25524 -0.82146,2.1606 1.61782,4.23828 3.7256603,3.17336 z m -0.0882,-2.48024 c -0.30444,-0.30444 -0.19268,-0.61736 0.22049,-0.61736 0.21828,0 0.39687,0.17859 0.39687,0.39687 0,0.41317 -0.31292,0.52493 -0.61736,0.22049 z m 12.6559,-2.52636 c -0.7276,-0.29334 -1.70449,-0.6937 -2.17086,-0.88969 -2.52374,-1.0606 -2.06486,-5.307796 0.72739,-6.732297 2.9433,-1.501558 6.15086,0.61328 6.51115,4.292987 0.33747,3.44671 -1.60713,4.72413 -5.06768,3.329 z m 2.88211,-1.68451 c 1.05255,-2.742898 -2.02624,-5.620784 -3.95247,-3.694554 -0.70335,0.703347 -0.88279,2.079034 -0.3187,2.443374 0.33958,0.21933 3.63517,1.59276 3.94044,1.64216 0.0936,0.0151 0.2424,-0.1608 0.33073,-0.39098 z m 167.995954,1.53777 c -0.40589,-0.25825 -0.6686,-3.86393 -0.34377,-4.718302 0.92681,-2.437707 2.45058,1.401842 1.71672,4.325762 -0.14864,0.59224 -0.7768,0.77184 -1.37295,0.39254 z m -8.76866,-5.157508 c -0.15249,-0.183745 -0.3159,-0.808823 -0.36312,-1.389062 -0.0597,-0.733936 -0.19808,-1.030994 -0.45461,-0.976159 -0.91847,0.196318 -1.91137,-0.254619 -1.82927,-0.830787 0.0665,-0.466756 0.28656,-0.585798 1.20583,-0.652309 1.10436,-0.0799 1.12455,-0.09884 1.12853,-1.058333 0.009,-2.128088 1.39648,-2.351836 1.5318,-0.246991 0.0806,1.254392 0.0806,1.254392 1.13278,1.254392 0.73228,0 1.10291,0.132287 1.21912,0.435137 0.21588,0.562565 -0.58106,1.152363 -1.55707,1.152363 -0.70174,0 -0.74318,0.06482 -0.74318,1.162317 0,0.815806 -0.12477,1.210196 -0.41852,1.322917 -0.54759,0.210132 -0.53113,0.213482 -0.85229,-0.173485 z M 9.7252257,96.93428 c -5.03075,-2.318049 -5.34571,-2.555309 -4.71471,-3.551573 0.34598,-0.546246 1.34799,-0.270555 5.0523503,1.390076 5.02198,2.251315 5.31977,2.482625 4.48736,3.485612 -0.49225,0.593135 -0.91714,0.476533 -4.8250003,-1.324115 z M 201.88577,97.394877 c -6.28062,-1.864915 -9.75938,-4.757081 -10.75177,-8.938775 -0.24173,-1.018646 -0.47759,-2.000912 -0.52411,-2.182813 -0.0636,-0.248848 -1.23728,-0.330729 -4.7405,-0.330729 -4.81895,0 -5.67945,-0.160348 -5.67945,-1.058333 0,-0.910825 0.85224,-1.064641 5.72363,-1.033021 4.69049,0.03045 4.69049,0.03045 5.24492,-1.680691 1.07477,-3.317018 4.59882,-7.340454 6.42935,-7.340454 0.98268,0 2.73742,2.769192 4.55132,7.182511 0.55675,1.354595 1.002,2.067719 1.3474,2.158045 0.62583,0.163655 0.71692,1.446818 0.119,1.676262 -0.33522,0.128638 -0.39687,1.009552 -0.39687,5.670931 0,5.854943 -0.0875,6.243886 -1.32292,5.877067 z m -5.02708,-8.012734 c 0,-3.439583 0,-3.439583 -1.98438,-3.439583 -1.98437,0 -1.98437,0 -1.98437,0.783826 0,1.850376 2.60155,6.095341 3.73556,6.095341 0.12825,0 0.23319,-1.547813 0.23319,-3.439584 z m 0.006,-5.927801 c 0.004,-0.304969 0.0771,-1.77488 0.16356,-3.266469 0.17986,-3.103594 0.0878,-3.205519 -1.41905,-1.570805 -2.16999,2.354167 -3.26864,5.067247 -2.14085,5.286804 1.73252,0.337288 3.38979,0.117938 3.39634,-0.44953 z M 22.630566,91.182646 c -0.75833,-0.430024 -0.91742,-0.749517 -0.92199,-1.851647 -0.007,-1.757732 2.0242,-2.442575 3.34061,-1.126167 1.47181,1.471811 -0.59247,4.013359 -2.41862,2.977814 z M 10.420186,84.992709 C 7.5342557,83.583649 7.0208657,83.15373 7.3134957,82.391143 c 0.31496,-0.820753 1.07014,-0.664607 4.2231703,0.873218 3.51599,1.714851 3.71694,1.878017 3.29162,2.67273 -0.42768,0.79914 -1.15729,0.642829 -4.4081,-0.944382 z m 10.68893,-3.492304 c -0.867,-0.108334 -1.12654,-0.546973 -1.35408,-2.288506 -0.15644,-1.197258 -0.33608,-1.464699 -2.14471,-3.193028 -6.91356,-6.606569 -3.71196,-17.322434 5.32124,-17.810384 9.66667,-0.522166 13.90247,10.408612 6.84413,17.66173 -1.63516,1.680284 -1.98575,2.190509 -1.98575,2.889943 0,1.47901 -0.66223,2.678044 -1.50785,2.730138 -1.50266,0.09257 -4.46672,0.09836 -5.17298,0.01011 z m 4.42057,-2.154145 c 0.32246,-0.521753 -2.74503,-0.919258 -3.49874,-0.45339 -0.66998,0.41411 0.007,0.699691 1.65796,0.699691 0.92871,0 1.75706,-0.110837 1.84078,-0.246301 z m 0.45227,-2.862553 c 0.0485,-0.109141 0.88967,-0.891186 1.86925,-1.737879 5.75069,-4.970565 3.84317,-13.157083 -3.37669,-14.491747 -2.91792,-0.539406 -5.35781,4.470619 -4.3854,9.004845 0.35394,1.650343 0.24496,1.851194 -1.4495,2.671466 -1.36857,0.662514 -1.15756,1.491411 0.70896,2.784911 0.52935,0.366837 1.23721,0.959445 1.57303,1.316908 0.61145,0.650856 4.80544,1.025051 5.06035,0.451496 z m 1.96859,-6.305495 c -0.0883,-0.230182 -0.1606,-1.017643 -0.1606,-1.749911 0,-0.883841 -0.19681,-1.68157 -0.58546,-2.373085 -0.62384,-1.109977 -0.47346,-1.851372 0.41084,-2.025452 1.44915,-0.285271 2.96911,4.276895 2.01739,6.055191 -0.3302,0.616997 -1.45722,0.679479 -1.68217,0.09326 z m -14.51257,7.88448 c -0.39846,-0.457742 -0.33722,-1.1069 0.13343,-1.414264 0.38426,-0.250946 1.19769,0.03462 1.3688,0.480539 0.33233,0.866016 -0.89636,1.629717 -1.50223,0.933725 z M 185.03426,77.305891 c -0.17328,-0.07052 -0.50723,-0.706805 -0.7421,-1.413957 -0.48521,-1.46083 -0.6822,-1.665229 -2.01971,-2.095685 -2.07977,-0.669345 -2.155,-1.65813 -0.1839,-2.417273 0.89282,-0.343858 1.2947,-0.713846 1.82981,-1.684578 1.35829,-2.464056 1.81851,-2.501244 3.01845,-0.243901 0.67162,1.263454 0.9727,1.558108 1.95676,1.91503 2.13786,0.775412 2.09369,1.790698 -0.10467,2.406201 -1.37974,0.386302 -1.57548,0.582755 -2.12092,2.128707 -0.49238,1.395561 -0.86674,1.717617 -1.63372,1.405456 z m 11.69214,-7.292072 c -1.66474,-0.93721 -1.01073,-3.650424 0.87992,-3.650424 0.87621,0 1.8982,0.962781 1.8982,1.788236 0,1.242698 -1.77049,2.429465 -2.77812,1.862188 z M 175.229,69.62775 c -0.38012,-0.153382 -0.4325,-1.106488 -0.0905,-1.646521 0.29495,-0.46573 1.49081,-0.198218 1.714,0.383424 0.36191,0.94312 -0.58697,1.68135 -1.62351,1.263097 z m 2.3086,-2.875315 c -0.25682,-0.309459 -0.26578,-0.558548 -0.0381,-1.058333 0.4615,-1.012881 2.16124,-0.817988 2.16124,0.247809 0,1.131924 -1.40977,1.670108 -2.12317,0.810524 z M 38.814246,66.451588 c -0.27084,-0.270841 -0.20951,-1.007565 0.11051,-1.327589 0.64343,-0.64343 1.73569,0.222618 1.39629,1.107104 -0.15318,0.399174 -1.17813,0.549153 -1.5068,0.220485 z m 64.403584,-0.98816 c -0.18147,-0.218657 -0.25604,-0.630397 -0.16572,-0.914977 0.38179,-1.202899 2.09108,-0.813165 1.94588,0.443677 -0.0962,0.832612 -1.23096,1.133044 -1.78016,0.4713 z M 46.197386,64.36012 c -0.53587,-0.535871 -0.52391,-0.716888 0.0973,-1.473144 0.572,-0.696296 1.90156,-0.306543 2.0779,0.609129 0.19717,1.023779 -1.38647,1.652802 -2.17525,0.864015 z M 146.55449,63.809644 c -0.19951,-0.240395 -0.48198,-0.805942 -0.62771,-1.25677 -0.20627,-0.638128 -0.60585,-0.982107 -1.80398,-1.552962 -1.97625,-0.941604 -2.02643,-1.685821 -0.15278,-2.265928 1.08269,-0.335211 1.29684,-0.536766 1.91971,-1.806774 1.09534,-2.233355 1.90027,-2.179322 2.68396,0.180168 0.39571,1.191345 0.5241,1.318729 1.7343,1.720694 1.94007,0.64439 1.77277,1.570702 -0.42087,2.330156 -0.81684,0.282798 -1.07898,0.549175 -1.3664,1.388486 -0.52772,1.540994 -1.31551,2.047002 -1.96623,1.26293 z m 40.67562,0.03112 c -0.60927,-0.609269 -0.12234,-1.377182 1.77825,-2.804403 0.89794,-0.674296 2.20075,-1.674498 2.89512,-2.222672 1.11812,-0.882703 1.33749,-0.962514 1.91823,-0.697912 1.22024,0.555982 0.82021,1.223549 -2.043,3.409301 -3.85095,2.939793 -3.89968,2.964603 -4.5486,2.315686 z m -53.34225,-0.30354 c -0.21828,-0.07621 -0.82385,-0.352383 -1.34571,-0.613725 -0.52185,-0.26134 -1.75341,-0.552209 -2.73679,-0.646375 -1.89702,-0.181652 -3.855,-0.822851 -3.855,-1.262435 0,-0.145288 -0.16696,-0.200096 -0.37101,-0.121793 -0.20405,0.0783 -0.44525,0.06813 -0.53598,-0.02262 -0.34289,-0.342887 -1.16699,-0.301096 -1.47913,0.07501 -0.17848,0.215058 -0.5253,0.391014 -0.77071,0.391014 -2.56509,0 0.1418,-12.100578 3.78798,-16.933332 5.13412,-6.804932 6.9928,-7.640545 8.45919,-3.803036 2.59468,6.790192 2.56365,15.464683 -0.0802,22.418531 -0.27091,0.712541 -0.37432,0.762553 -1.07264,0.518752 z m 0.13595,-6.028947 c 0.76595,-3.293752 0.75124,-3.45591 -0.33115,-3.651051 -0.40196,-0.07247 -2.20573,-0.443383 -4.00837,-0.824256 -3.43843,-0.726491 -4.52768,-0.839574 -4.52768,-0.470059 0,0.12234 -0.24414,1.391523 -0.54252,2.820402 -0.61971,2.967593 -0.33608,3.833744 0.66877,2.042346 1.96286,-3.499271 6.99889,-2.561106 7.13394,1.328983 0.10753,3.09757 0.70452,2.634559 1.60701,-1.246365 z m -4.25589,2.089341 c 1.29952,-1.299522 -0.69855,-3.12673 -2.12477,-1.943071 -0.4839,0.401606 -0.46872,1.041643 0.042,1.770806 0.48038,0.685829 1.48603,0.769006 2.08277,0.172265 z m 5.216,-8.117038 c 0.25175,-3.972563 -0.13918,-4.953661 -2.24612,-5.636903 -3.60269,-1.168289 -3.95559,-1.124537 -5.13134,0.636159 -2.36202,3.537167 -2.41097,3.453659 2.70952,4.622681 4.88994,1.116385 4.62252,1.094726 4.66794,0.378063 z m -1.65543,-9.271053 c -0.2988,-0.758134 -0.57049,-1.405696 -0.60376,-1.439023 -0.0333,-0.03333 -0.5772,0.465873 -1.20871,1.109339 -1.14821,1.16994 -1.14821,1.16994 -0.38037,1.344835 0.42231,0.09619 1.12502,0.264118 1.56158,0.373171 1.16123,0.290071 1.23168,0.135133 0.63126,-1.388322 z M 77.584526,62.606311 c -0.20087,-0.200874 -0.3175,-1.21054 -0.3175,-2.748679 0,-2.431179 0,-2.431179 -0.89946,-2.599917 -1.84051,-0.345284 -1.83586,-1.742237 0.006,-1.742237 0.89365,0 0.89365,0 0.89365,-1.437378 0,-1.202854 0.0859,-1.464659 0.5268,-1.604578 0.70653,-0.224245 1.0607,0.03471 1.0607,0.775541 0,1.645497 0.29332,2.212914 1.23529,2.389632 1.23481,0.231651 1.16479,1.193564 -0.11081,1.522357 -0.8599,0.221639 -0.8599,0.221639 -0.8599,2.404163 0,2.689695 -0.63252,3.943162 -1.53458,3.041096 z m 61.355044,-0.314277 c -0.47934,-0.577572 0.0946,-1.542791 0.85317,-1.434798 0.81746,0.116374 0.83921,1.632294 0.0251,1.748615 -0.30377,0.0434 -0.69899,-0.09782 -0.87825,-0.313817 z M 43.725106,61.494979 c -0.40887,-0.897376 0.11424,-1.555268 1.14351,-1.438137 0.58063,0.06608 0.80286,0.245142 0.86716,0.69872 0.18837,1.328772 -1.46509,1.936826 -2.01067,0.739417 z m 23.95754,0.172062 c -0.22328,-0.254662 -0.61503,-0.87974 -0.87053,-1.389063 -0.25551,-0.509323 -1.28604,-2.125914 -2.29006,-3.592425 -1.88243,-2.749534 -2.03558,-3.359179 -0.93187,-3.709482 1.30429,-0.413964 6.61862,7.697642 5.73817,8.758526 -0.43899,0.528944 -1.14822,0.499832 -1.64571,-0.06756 z m 46.648214,0.217736 c -0.8598,-0.54423 1.26496,-10.577898 2.58529,-12.208438 1.26864,-1.566709 2.01511,0.06954 1.09578,2.401919 -0.55141,1.398934 -1.85115,7.382941 -1.85115,8.522684 0,1.070665 -1.02766,1.791647 -1.82992,1.283835 z M 91.167299,61.346972 c -0.64279,-0.710272 -0.35362,-1.799535 0.53707,-2.023084 0.48369,-0.121396 0.77559,-0.03021 1.04589,0.3267 1.09201,1.441976 -0.38284,3.022502 -1.58296,1.696384 z m 74.470561,-0.531286 c -4.20162,-0.622324 -6.02767,-1.18994 -9.91601,-3.082303 -6.98067,-3.397335 -8.56261,-10.71336 -3.29705,-15.247943 0.7186,-0.618841 1.30661,-1.341805 1.30668,-1.606584 7.9e-4,-2.858733 4.2009,-8.307183 7.99633,-10.372912 2.96522,-1.613879 10.51094,-1.886731 11.00718,-0.398018 0.0505,0.15149 0.20457,0.205748 0.34238,0.120573 1.8969,-1.172347 8.06138,5.243983 9.11697,9.489434 0.36521,1.468853 0.58065,1.866429 1.17905,2.175875 3.21536,1.662729 4.79976,6.932755 3.14072,10.446671 -2.5479,5.396542 -13.00357,9.64127 -20.87625,8.475207 z m 7.44942,-3.102023 c 3.31728,-1.552342 6.43238,-5.54296 7.10806,-9.105831 0.32509,-1.714182 0.33073,-1.709634 -1.11684,-0.900575 -6.00538,3.356472 -15.46401,3.57247 -22.80916,0.520872 -1.5821,-0.657297 0.96123,4.436721 3.45939,6.928794 3.44574,3.437342 9.14554,4.528246 13.35855,2.55674 z m -15.81321,-1.735164 c -0.10611,-0.181901 -0.5407,-0.844193 -0.96575,-1.471758 -1.75102,-2.585283 -2.8413,-5.931058 -2.8413,-8.719195 0,-1.480642 -0.42686,-1.382519 -1.29106,0.296778 -1.8052,3.507859 -0.54444,6.766382 3.57909,9.250399 1.80528,1.087501 1.76887,1.072068 1.51902,0.643776 z M 180.481,55.499865 c 4.78676,-2.822376 6.08489,-7.10734 3.1979,-10.555861 -0.76533,-0.914183 -0.76533,-0.914183 -0.95802,1.322917 -0.25001,2.902378 -1.27636,5.975416 -2.70952,8.112635 -1.54675,2.306598 -1.54587,2.308696 0.46964,1.120309 z m -7.75008,-7.63013 c 0.918,-0.130747 1.87988,-0.428469 2.1375,-0.661612 0.25762,-0.233143 0.55569,-0.423894 0.66238,-0.423894 0.40791,0 3.24442,-1.426565 4.09923,-2.061628 0.8953,-0.665141 0.8953,-0.665141 0.72859,-2.542902 -0.25949,-2.922932 -0.33084,-3.068386 -1.50516,-3.068386 -4.03416,0 -9.12647,-2.149176 -13.18786,-5.565844 -2.56261,-2.155809 -4.99487,-1.074232 -8.0111,3.562384 -4.32535,6.649035 -2.48011,9.787215 6.52815,11.102361 1.10842,0.161822 6.54058,-0.05454 8.54827,-0.340479 z m 5.60694,-11.410166 c 0,-2.006449 -6.79857,-5.768158 -10.45105,-5.782659 -2.11666,-0.0084 -2.11666,-0.0084 -0.58137,1.408609 2.83052,2.612472 11.03242,5.864297 11.03242,4.37405 z M 53.189946,58.284311 c -3.8115,-2.649281 -4.67721,-3.847031 -2.91042,-4.026736 1.73414,-0.176384 8.37302,5.100624 7.55464,6.004915 -0.69564,0.768672 -0.68714,0.772289 -4.64422,-1.978179 z m 132.178264,2.10706 c -0.51811,-0.518118 -0.51751,-0.644147 0.007,-1.392545 0.57208,-0.816763 1.78912,-0.704532 1.91391,0.176493 0.17116,1.208522 -1.11425,2.022401 -1.9206,1.216052 z m -84.23335,-0.263168 c -0.32537,-0.227899 -0.84525,-0.912508 -1.155291,-1.521354 -0.31003,-0.608849 -0.78309,-1.261451 -1.05122,-1.450229 -0.28812,-0.202843 -0.45108,-0.581612 -0.39844,-0.926042 0.097,-0.634505 11.042641,-1.050028 11.423571,-0.433665 0.31011,0.501764 -0.17439,1.246256 -0.9063,1.392637 -0.4947,0.09894 -0.85293,0.403069 -1.05804,0.89825 -0.97116,2.344584 -4.79491,3.482848 -6.85428,2.040403 z m 4.46452,-1.84816 c 0.86989,-0.53762 0.15436,-0.912481 -1.74173,-0.912481 -1.93833,0 -2.17922,0.093 -1.78189,0.687932 0.40121,0.600721 2.68,0.74594 3.52362,0.224549 z m 82.46191,0.124659 c -0.72654,-0.423169 -0.54619,-1.17548 0.46706,-1.948326 1.74496,-1.330941 2.88899,-0.155609 1.30378,1.33944 -1.04032,0.981147 -1.09778,1.000906 -1.77084,0.608886 z M 90.252909,57.790107 c -0.613553,-0.739289 -1.112263,-2.842551 -0.771393,-3.253277 0.825373,-0.994516 2.344393,0.658344 2.432443,2.646775 0.0427,0.965118 -1.0364,1.359148 -1.66105,0.606502 z m -67.426613,-2.33049 c -0.15663,-0.188725 -0.32428,-0.759378 -0.37255,-1.268116 -0.0835,-0.879811 -0.14167,-0.928905 -1.19163,-1.005332 -2.21744,-0.161409 -2.02524,-1.63944 0.21319,-1.63944 0.97855,0 0.99369,-0.01585 1.0739,-1.124479 0.12561,-1.73594 1.3416,-1.686727 1.53657,0.06219 0.13229,1.186667 0.13229,1.186667 1.21037,1.107599 0.72842,-0.05343 1.18853,0.05403 1.41866,0.331316 0.59089,0.711986 0.14154,1.174563 -1.22588,1.261949 -1.27086,0.08122 -1.27086,0.08122 -1.40315,1.269479 -0.13776,1.23743 -0.69649,1.683197 -1.25948,1.004837 z m 11.37466,-0.404778 c -3.62204,-0.430525 -1.38856,-14.38103 2.37479,-14.833203 2.87079,-0.344929 6.07548,11.514807 3.82003,14.136925 -0.63552,0.738831 -3.30888,1.039305 -6.19482,0.696278 z m 4.65195,-2.768431 c 0.22015,-0.811926 0.0822,-1.763736 -0.15324,-1.057378 -0.0696,0.208701 -0.77159,0.317699 -2.04618,0.317699 -3.14515,0 -3.05647,1.401233 0.097,1.533429 1.86593,0.07822 1.86593,0.07822 2.10237,-0.79375 z m 0.12005,-3.487695 c -0.22319,-1.167534 -4.56843,-1.070345 -4.56843,0.102182 0,0.789496 0.008,0.793769 1.52136,0.797362 1.94737,0.0046 2.70626,0.214098 2.73472,0.754851 0.0125,0.237688 0.11765,0.11829 0.23364,-0.265332 0.11601,-0.383622 0.15142,-1.0087 0.0787,-1.389063 z m -0.86426,-3.091849 c 0,-0.282236 -1.29886,-2.626802 -1.45521,-2.626802 -0.15635,0 -1.45521,2.344566 -1.45521,2.626802 0,0.167386 0.59636,0.283615 1.45521,0.283615 0.85885,0 1.45521,-0.116229 1.45521,-0.283615 z m 58.439753,8.578037 c -0.53236,-0.641463 0.0545,-1.256686 1.29814,-1.360881 2.09068,-0.175162 3.206471,1.350859 1.18242,1.617146 -1.63896,0.21562 -2.13113,0.164777 -2.48056,-0.256265 z M 108.554,54.524016 c -1.69979,-0.198461 -0.92499,-1.654371 0.88042,-1.654371 1.34063,0 2.44143,1.464612 1.20794,1.607161 -0.0936,0.01082 -0.40825,0.04845 -0.69929,0.08364 -0.29104,0.03518 -0.91612,0.01879 -1.38907,-0.03643 z M 44.733826,53.543814 c -0.70285,-0.846886 0.32947,-2.147826 1.24622,-1.570498 0.91608,0.5769 0.58971,1.954663 -0.46302,1.954663 -0.2554,0 -0.60784,-0.172874 -0.7832,-0.384165 z m 43.09123,-1.269481 c -0.48082,-0.763985 -1.14765,-1.72511 -1.48184,-2.135838 -1.1416,-1.403028 0.46718,-2.516267 1.69291,-1.171454 1.6442,1.803943 2.451103,3.78414 1.75646,4.310496 -0.78547,0.595175 -1.0448,0.462952 -1.96753,-1.003204 z M 140.5905,51.129991 c -0.33476,-0.872381 3.42397,-8.83508 4.476,-9.482203 1.01495,-0.624305 1.99932,0.983015 1.17411,1.917115 -0.21438,0.24266 -1.23677,2.137842 -2.27199,4.211513 -1.92086,3.847727 -2.83881,4.759005 -3.37812,3.353575 z M 55.571196,49.66411 c -11.05653,-1.046816 -16.36183,-14.513065 -9.17612,-23.291376 4.93763,-6.03197 15.68933,-6.27876 20.92783,-0.480364 9.00735,9.970053 1.56128,25.032196 -11.75171,23.77174 z m 0.69054,-2.470314 c -0.10256,-0.698791 -0.99728,-1.437748 -2.71282,-2.240545 -1.18389,-0.554013 -1.83131,-1.043654 -2.15083,-1.62666 -1.2677,-2.313147 -2.14819,-3.169084 -4.61375,-4.485074 -1.18666,-0.633381 -1.26731,-0.63972 -1.26731,-0.09962 0,1.540719 3.15315,5.766311 5.32673,7.138427 2.01492,1.271968 5.53721,2.125874 5.41798,1.313476 z m 12.06795,-6.778498 c 0.66084,-1.329536 0.97636,-4.053284 0.70051,-6.047149 -0.28657,-2.071294 -0.27782,-2.061684 -1.24764,-1.371116 -0.93549,0.666131 -2.57865,0.736325 -3.42124,0.146153 -1.33927,-0.938064 -0.17487,-2.740398 1.52871,-2.366229 1.68647,0.370411 2.07194,-0.899608 0.77143,-2.541633 -0.97859,-1.235583 -1.11223,-1.25054 -2.24972,-0.251812 -0.71603,0.628685 -1.05421,0.75125 -1.75779,0.637075 -1.4817,-0.240446 -2.1226,0.871418 -1.67883,2.912501 0.21129,0.971801 0.16953,1.068631 -0.87121,2.019953 -2.37657,2.172401 -0.87215,4.637157 2.61104,4.277768 1.2282,-0.126722 2.10537,0.274886 2.67191,1.22334 1.48483,2.485734 2.21581,2.823837 2.94283,1.361149 z m -18.10045,-3.372302 c -0.0686,-0.594064 -0.21143,-0.709808 -0.87575,-0.709808 -0.95566,0 -1.29315,1.061579 -0.51775,1.628571 0.69593,0.508873 1.49739,-0.01955 1.3935,-0.918763 z m -1.88584,-3.771373 c 1.88931,0.524637 2.66608,0.382571 3.15187,-0.576456 0.74914,-1.478936 1.15825,-1.785937 2.37992,-1.785937 1.66263,0 2.48976,-0.386176 2.48976,-1.162437 0,-1.064016 0.2773,-1.479131 1.35555,-2.029211 1.07141,-0.546595 1.27963,-1.131162 0.75325,-2.114716 -0.20236,-0.378103 -0.16577,-0.671896 0.14221,-1.141926 0.51702,-0.789083 -0.60058,-1.105157 -2.89437,-0.818565 -1.92626,0.24067 -2.20272,0.452024 -1.50454,1.15021 0.7176,0.717597 0.7049,0.969113 -0.089,1.763045 -0.90805,0.908058 -2.56103,0.902602 -3.4751,-0.01146 -1.09941,-1.099407 -3.48245,1.37523 -4.85372,5.040275 -0.86529,2.312694 -0.78817,2.617136 0.49368,1.948997 0.88181,-0.459623 1.19442,-0.499538 2.05052,-0.261813 z m 48.577183,16.395813 c -3.13681,-0.745414 -3.5927,-5.625357 -0.84193,-9.012253 0.57266,-0.705091 0.57266,-0.705091 -0.45438,-1.575851 -0.56487,-0.478919 -1.6074,-1.456533 -2.31675,-2.172477 -1.43706,-1.450446 -1.18966,-1.455238 -3.843243,0.07445 -1.14623,0.660757 -1.95186,0.338166 -1.82821,-0.73206 0.0743,-0.643467 1.78733,-2.116098 2.888423,-2.483128 0.21388,-0.07129 0.13265,-0.613261 -0.27128,-1.810056 -0.317113,-0.93956 -0.661623,-2.303603 -0.765583,-3.031207 -0.18902,-1.322917 -0.18902,-1.322917 -2.59178,-1.322917 -2.53185,0 -3.27882,-0.277233 -3.27882,-1.216922 0,-0.950735 1.08221,-1.332113 3.43372,-1.210074 1.46445,0.076 2.19236,0.01601 2.25095,-0.185547 0.0476,-0.16383 0.3833,-1.22378 0.74594,-2.355445 0.724783,-2.26178 0.766333,-2.170914 -1.71204,-3.744121 -2.4272,-1.540725 -0.46763,-2.905956 2.095103,-1.459648 1.68255,0.949573 1.46928,0.99872 3.04552,-0.701829 1.25,-1.348586 1.25,-1.348586 -0.86501,-3.664008 -2.22682,-2.437818 -2.27589,-2.526811 -1.84113,-3.3391741 0.56728,-1.0599631 1.4076,-0.6207945 3.57713,1.8694771 2.31386,2.655933 2.15164,2.569208 3.50967,1.876388 0.90754,-0.462989 2.792621,-1.060376 4.611711,-1.461461 0.7276,-0.160424 0.7276,-0.160424 0.7276,-2.8805923 0,-2.8591323 0.17603,-3.3551679 1.19063,-3.3551679 1.01549,0 1.19062,0.4954799 1.19062,3.3685108 0,1.9626764 0.0933,2.7587574 0.33073,2.8230354 0.1819,0.04924 1.00471,0.215577 1.82847,0.369647 0.82376,0.154072 2.17482,0.60044 3.00237,0.991933 1.50463,0.711804 1.50463,0.711804 3.79393,-1.70665 2.25612,-2.3834112 2.80086,-2.7155321 3.427,-2.089393 0.63514,0.63514 0.2793,1.369041 -1.66687,3.43784 -2.33867,2.486017 -2.31622,2.349653 -0.6762,4.107473 1.2868,1.379228 1.28859,1.380067 1.90814,0.896263 1.87961,-1.467768 3.37287,-1.87584 3.88186,-1.060815 0.43027,0.68898 0.0364,1.186778 -2.01964,2.552658 -1.03871,0.690033 -1.35694,1.043723 -1.22372,1.360082 0.43692,1.037543 1.17227,3.562289 1.17227,4.02486 0,0.471975 0.16485,0.498383 2.35726,0.377611 2.0289,-0.111768 2.44219,-0.06107 2.96704,0.363921 1.44933,1.173596 -0.94078,2.567146 -3.45562,2.014794 -1.2998,-0.285483 -1.86868,0.03254 -1.86868,1.044647 0,0.7294 -0.66509,3.307582 -1.23917,4.803623 -0.0772,0.201187 -0.0109,0.365792 0.14739,0.365792 0.63301,0 3.20844,1.885048 3.20844,2.348373 0,1.339958 -0.91695,1.482066 -2.81856,0.436811 -2.35216,-1.292907 -4.85595,0.711848 -3.13041,2.506483 4.72173,4.910809 -2.95524,13.07675 -9.82665,10.452533 -0.99421,-0.379693 -1.33058,-0.404543 -1.90893,-0.141028 -0.92352,0.420785 -5.428691,0.581731 -6.847311,0.244619 z M 111.818,47.238675 c 3.96141,-2.053254 3.67877,-8.843354 -0.28743,-6.905133 -1.48895,0.727625 -4.53952,1.688187 -5.36138,1.688187 -0.65682,0 -0.84776,3.837517 -0.25013,5.027083 0.54736,1.089509 3.95181,1.199084 5.89894,0.189863 z m -9.00311,0.228457 c 0.41127,-0.300633 0.52011,-0.722339 0.54632,-2.116696 0.0264,-1.403786 -0.29854,-4.034504 -0.40252,-3.25901 -0.0149,0.111093 -0.46727,0.01807 -1.00528,-0.20673 -0.53801,-0.224795 -1.13332,-0.349192 -1.32292,-0.276439 -0.18959,0.07276 -0.34471,0.03184 -0.34471,-0.09092 0,-0.122764 -0.356311,-0.294468 -0.791801,-0.381566 -2.37851,-0.475703 -4.37947,5.177001 -2.30051,6.498923 0.58433,0.371541 5.066701,0.237937 5.621421,-0.167558 z m 5.67082,-8.355094 c 10.86883,-3.661445 11.82912,-18.733415 1.50988,-23.698014 -8.59546,-4.13529 -18.441061,1.933689 -18.441061,11.367349 0,8.836937 8.634811,15.125508 16.931181,12.330665 z m -5.95039,-6.487896 c -2.42884,-1.312582 -3.157111,-3.590782 -1.90486,-5.958824 2.50455,-4.736173 9.79672,-1.524177 8.07504,3.556828 -0.76417,2.25519 -4.06445,3.539961 -6.17018,2.401996 z m 3.00375,-1.82736 c 1.49637,-0.773806 1.75166,-2.485581 0.53956,-3.617857 -2.40319,-2.24491 -5.34427,1.027943 -3.016,3.356216 0.72892,0.728913 1.42966,0.802949 2.47644,0.261641 z M 72.083316,48.768604 c -0.89764,-1.369978 0.83716,-2.626757 2.00871,-1.455208 0.63699,0.636987 0.64734,0.771879 0.11729,1.528627 -0.55749,0.79592 -1.57951,0.760624 -2.126,-0.07342 z m 5.56174,-6.595488 c -0.0887,-0.353298 -0.0788,-0.902187 0.022,-1.219753 0.14046,-0.442545 -0.008,-0.752478 -0.63757,-1.327097 -1.27298,-1.162685 -0.72088,-2.367037 1.08509,-2.367037 0.55193,0 0.76911,-0.156493 0.89096,-0.641985 0.39473,-1.572709 1.6126,-1.753647 2.36199,-0.350916 0.40296,0.754284 0.69393,0.991642 1.21627,0.992187 1.5381,0.0016 1.99422,1.476468 0.75625,2.445327 -0.67834,0.530875 -0.76981,0.733136 -0.57704,1.275947 0.50541,1.423165 -0.57492,2.294353 -1.83307,1.478214 -0.54096,-0.350909 -0.68588,-0.353777 -1.13382,-0.02244 -0.84604,0.625816 -1.96234,0.489616 -2.1511,-0.262459 z m 59.616954,-5.099778 c -4.33669,-6.370639 -6.66266,-11.387941 -6.45738,-13.929052 0.78704,-9.742591 15.34694,-9.404559 15.36021,0.356611 0.003,2.37694 -0.57104,3.823258 -3.36177,8.466666 -3.96297,6.593848 -4.31025,6.913851 -5.54106,5.105775 z m 3.40415,-5.816393 c 4.5546,-7.331196 4.64364,-10.404689 0.36517,-12.605495 -6.57383,-3.381521 -10.33455,3.510335 -5.88927,10.792615 0.80281,1.315164 1.82662,3.016284 2.27514,3.780269 1.04956,1.787755 0.83549,1.917387 3.24896,-1.967389 z m -3.31487,-4.812157 c -2.11739,-0.592314 -2.2799,-4.163022 -0.23753,-5.219173 2.34619,-1.21326 5.14304,1.0145 4.18312,3.331956 -0.75134,1.813877 -2.02683,2.423962 -3.94559,1.887217 z m 8.71025,9.891837 c -0.4399,-0.530051 -0.12799,-1.647852 0.51694,-1.852544 1.1752,-0.372994 2.13464,1.073221 1.27938,1.928482 -0.43862,0.438615 -1.40311,0.397843 -1.79632,-0.07594 z M 35.661296,36.179703 c -0.53151,-0.309576 -0.61339,-1.310098 -0.14552,-1.777974 0.5031,-0.503097 1.74402,-0.385751 2.05444,0.194273 0.69578,1.300062 -0.57946,2.358038 -1.90892,1.583701 z m 92.194064,-1.883807 c -0.79588,-0.795874 -0.17052,-2.06375 1.0179,-2.06375 0.87778,0 1.36572,0.902317 0.96578,1.785938 -0.299,0.660595 -1.44097,0.820525 -1.98368,0.277812 z m -51.258244,-3.92517 c -0.47483,-0.524685 -0.47239,-0.55345 0.095,-1.120807 0.9288,-0.928801 2.19817,0.262988 1.35815,1.275146 -0.43826,0.528077 -0.87778,0.481394 -1.45311,-0.154339 z m 77.295094,-1.732095 c -0.0883,-0.230182 -0.1606,-0.706432 -0.1606,-1.058333 0,-0.550413 -0.12488,-0.639818 -0.89365,-0.639818 -0.4915,0 -1.04186,-0.178594 -1.22302,-0.396875 -0.49028,-0.590746 0.12593,-1.190625 1.22302,-1.190625 0.77046,0 0.89365,-0.08881 0.89365,-0.644234 0,-2.149139 1.35906,-2.728137 1.5875,-0.676317 0.12913,1.159909 0.15754,1.191416 1.19062,1.320551 1.6153,0.201911 1.77082,1.5875 0.17817,1.5875 -1.10825,0 -1.36879,0.281112 -1.36879,1.476848 0,0.753579 -1.15397,0.932553 -1.4269,0.221303 z m 7.01489,-3.755503 c -0.54455,-1.017508 0.80542,-1.889453 1.54522,-0.998054 0.17536,0.211299 0.24145,0.628018 0.14686,0.926042 -0.21632,0.681567 -1.34026,0.729398 -1.69208,0.07201 z M 71.575226,23.856714 c -0.24086,-0.240864 -0.53989,-0.706083 -0.66449,-1.033825 -0.13589,-0.357423 -0.53958,-0.664644 -1.00874,-0.767689 -2.32006,-0.509571 -2.34163,-4.002629 -0.0279,-4.51082 0.41488,-0.09112 0.82416,-0.38571 0.90951,-0.654637 0.75969,-2.393564 3.50055,-2.450751 4.216,-0.08796 0.10614,0.350496 0.47075,0.641948 0.92902,0.742601 2.34796,0.515697 2.22683,3.521535 -0.18299,4.541377 -0.47295,0.200149 -0.8599,0.52015 -0.8599,0.711113 0,1.179708 -2.41693,1.953466 -3.31055,1.059844 z m 1.86214,-2.578018 c 0.22873,-0.349086 0.76726,-0.780251 1.19673,-0.958141 0.98933,-0.409797 0.98381,-0.640138 -0.0254,-1.058159 -0.44343,-0.183673 -0.98227,-0.674367 -1.19742,-1.090432 -0.48769,-0.943076 -0.53339,-0.940597 -1.04924,0.05695 -0.23401,0.452527 -0.76528,0.933572 -1.19742,1.084217 -0.99652,0.347388 -0.97909,0.563645 0.0831,1.031166 0.47294,0.208164 0.97743,0.646369 1.12107,0.973791 0.33248,0.757825 0.55147,0.749753 1.06854,-0.03939 z m 53.718624,-4.980421 c -0.22654,-0.323419 -0.41188,-0.918732 -0.41188,-1.322917 0,-0.658397 -0.093,-0.734878 -0.89365,-0.734878 -1.82389,0 -1.73377,-1.478539 0.0999,-1.638837 0.88582,-0.07744 0.93179,-0.132567 1.05833,-1.269214 0.15913,-1.4293321 0.89267,-1.7954651 1.32404,-0.660874 0.14699,0.386604 0.20648,0.801241 0.1322,0.921417 -0.31599,0.511286 0.21981,1.060008 1.03504,1.060008 0.46594,0 1.07379,0.165709 1.35077,0.368245 0.75625,0.552981 0.0849,1.219255 -1.22861,1.219255 -1.01154,0 -1.02594,0.0141 -1.02594,1.005417 0,1.553808 -0.72032,2.080157 -1.4402,1.052378 z M 81.122386,14.353873 c -0.82979,-0.829784 -0.25106,-2.494643 0.86717,-2.494643 0.73122,0 1.62814,0.777817 1.61906,1.404065 -0.0194,1.338392 -1.56184,2.014974 -2.48623,1.090578 z"
       id="path125" /></g></svg>
